<?xml version="1.0" encoding="utf-8"?>
<!-- Generator: Adobe Illustrator 23.0.3, SVG Export Plug-In . SVG Version: 6.00 Build 0)  -->
<svg version="1.1" id="Layer_1" xmlns="http://www.w3.org/2000/svg" xmlns:xlink="http://www.w3.org/1999/xlink" x="0px" y="0px"
	 viewBox="0 0 200 200" style="enable-background:new 0 0 200 200;" xml:space="preserve">
<style type="text/css">
	.st000{fill:url(#SVGID_1_);}
	.st0001{fill:url(#SVGID_2_);}
	.st0002{fill:url(#SVGID_3_);}
	.st0003{fill:url(#SVGID_4_);}
	.st0004{fill:url(#SVGID_5_);}
	.st0005{fill:#1D293B;}
	.st0006{fill:url(#SVGID_6_);}
	.st0007{fill:url(#SVGID_7_);}
	.st0008{fill:url(#SVGID_8_);}
	.st0009{fill:url(#SVGID_9_);}
	.st00010{fill:#FFFFFF;}
	.st00011{fill:url(#SVGID_10_);}
	.st00012{font-family:'Arial-ExtraBold';}
	.st00013{font-size:22.152px;}
	.st00014{font-size:28.0282px;}
	.st00015{font-family:'Prompt-SemiBold';}
	.st00016{font-size:12.1248px;}
</style>
<g>
	<g>
		
			<linearGradient id="SVGID_1_" gradientUnits="userSpaceOnUse" x1="206.2676" y1="151.1654" x2="264.782" y2="276.6501" gradientTransform="matrix(0.9991 4.250000e-02 -4.250000e-02 0.9991 -139.2225 -124.1027)">
			<stop  offset="0.106" style="stop-color:#DE00FF"/>
			<stop  offset="0.9085" style="stop-color:#9A00FF"/>
		</linearGradient>
		<path class="st000" d="M89.8,31.5c-40.4-1.7-74.4,26.9-76,64c-2,46.5,48.8,80,93.7,69.5c12.4-2.9,24-9,33-17.8
			c36.3-35.7,18.8-95.6-28.8-111.6C104.6,33.2,97.2,31.9,89.8,31.5z"/>
		
			<linearGradient id="SVGID_2_" gradientUnits="userSpaceOnUse" x1="1404.1287" y1="1221.4578" x2="1463.0615" y2="1347.8397" gradientTransform="matrix(0.9402 0.3407 -0.3095 0.854 -847.2271 -1473.9949)">
			<stop  offset="0.2586" style="stop-color:#FBEF00"/>
			<stop  offset="1" style="stop-color:#FFC300"/>
		</linearGradient>
		<path class="st0001" d="M124.2,52.9C85.9,39,45.5,53.6,34,85.5c-14.5,40,25.1,84.9,71,89.4c12.7,1.3,25.5-0.5,36.5-5.5
			c44.5-20.1,44-77.8,2.7-106.4C138,58.9,131.2,55.4,124.2,52.9z"/>
	</g>
	<g>
		<linearGradient id="SVGID_3_" gradientUnits="userSpaceOnUse" x1="64.0529" y1="42.8895" x2="125.8784" y2="175.4747">
			<stop  offset="0" style="stop-color:#343E4F"/>
			<stop  offset="0.8992" style="stop-color:#0B1629"/>
		</linearGradient>
		<path class="st0002" d="M92.9,37.2c-39.4,0-71.4,30.3-71.4,67.6c0,37,31.5,67.1,70.5,67.6l-11.2,24.1c0,0,34.9-17.6,56.4-36.4
			s27.1-33.5,27.1-55.3C164.4,67.5,132.4,37.2,92.9,37.2z"/>
		<linearGradient id="SVGID_4_" gradientUnits="userSpaceOnUse" x1="64.0529" y1="42.8895" x2="125.8784" y2="175.4747">
			<stop  offset="0" style="stop-color:#565E6C"/>
			<stop  offset="0.8992" style="stop-color:#000213"/>
		</linearGradient>
		<path class="st0003" d="M92.9,37.2c-39.4,0-71.4,30.3-71.4,67.6c0,37,31.5,67.1,70.5,67.6l-11.2,24.1c0,0,34.9-17.6,56.4-36.4
			s27.1-33.5,27.1-55.3C164.4,67.5,132.4,37.2,92.9,37.2z M135.6,158.2c-15.5,13.6-38.2,26.6-49.3,32.6l9.7-20.9l-3.9,0
			c-18.2-0.2-35.4-7.1-48.2-19.4C31.1,138.3,24,122,24,104.8c0-17.4,7.2-33.7,20.1-46c13-12.3,30.3-19.1,48.8-19.1
			c18.4,0,35.8,6.8,48.8,19.1c13,12.3,20.1,28.6,20.1,46c0,11.4-1.6,19.9-5.3,27.7C152.6,140.9,145.9,149.1,135.6,158.2z"/>
	</g>
	<g>
		
			<linearGradient id="SVGID_5_" gradientUnits="userSpaceOnUse" x1="-2116.749" y1="552.0584" x2="-2072.7334" y2="649.558" gradientTransform="matrix(0.6092 -6.240000e-02 8.110000e-02 0.792 1301.7004 -480.3843)">
			<stop  offset="0.2586" style="stop-color:#FFFF00"/>
			<stop  offset="1" style="stop-color:#FFBD00"/>
		</linearGradient>
		<polygon class="st0004" points="124.5,139.3 27.5,152.9 12.7,121.4 125.1,107.5 		"/>
		<path class="st0005" d="M40.8,151.1c1.7,1.9,5.6,5,5.6,5l82.3-11.5l1.5-6.1L40.8,151.1z"/>
		<linearGradient id="SVGID_6_" gradientUnits="userSpaceOnUse" x1="61.4788" y1="98.65" x2="88.3139" y2="156.198">
			<stop  offset="0.2586" style="stop-color:#FFFF8D"/>
			<stop  offset="0.4436" style="stop-color:#FFE769"/>
			<stop  offset="1" style="stop-color:#FFA000"/>
		</linearGradient>
		<path class="st0006" d="M12.7,121.4l14.8,31.5l97-13.6l0.6-31.8L12.7,121.4z M122,137.1l-93.1,13l-12.6-26.7l106.1-13.1L122,137.1z"
			/>
	</g>
	<g>
		
			<linearGradient id="SVGID_7_" gradientUnits="userSpaceOnUse" x1="1632.0118" y1="-1945.1514" x2="1606.2762" y2="-1927.2924" gradientTransform="matrix(-0.9765 0.2153 0.2153 0.9765 2088.1963 1596.7048)">
			<stop  offset="0.2586" style="stop-color:#FBEF00"/>
			<stop  offset="1" style="stop-color:#FFC300"/>
		</linearGradient>
		<polygon class="st0007" points="82.9,42.8 72.7,56.1 103.6,63.2 		"/>
		
			<linearGradient id="SVGID_8_" gradientUnits="userSpaceOnUse" x1="-536.9145" y1="1279.566" x2="-549.7817" y2="1334.2539" gradientTransform="matrix(-1.3493 -0.5286 -0.3648 0.9311 -158.492 -1471.6344)">
			<stop  offset="0.2586" style="stop-color:#FBEF00"/>
			<stop  offset="1" style="stop-color:#FFC300"/>
		</linearGradient>
		<polygon class="st0008" points="99.3,3.6 79.3,11.5 115.9,65.5 		"/>
	</g>
	<g>
		<path class="st0005" d="M163,120.9c0.1-0.6,0.2-1.2,0.3-1.8c0.8-4.5,1.1-9.2,1.1-14.3c0-15.3-5.3-29.3-14.4-40.7
			c-8.4-1.8-16.2-1.9-23.4-0.3c-1.9,0.4-3.3,1.8-3.8,3.7l-4.4,18.1c-0.4,1.7,0.1,3.5,1.4,4.7c0.9,0.9,2,1.3,3.2,1.4l10.6,0.9
			c0.4,0,0.7,0,1.1,0c3.2-0.3,6.2-0.3,9.1,0.2c-0.6,0.3-1.4,0.6-2.4,0.9c0,0,0,0-0.1,0l-3.5,1.2c0,0-0.1,0-0.1,0.1
			c-3.8,1.5-6.9,3.8-9.3,6.9c-2.3,2.9-4,6.5-4.9,10.4l-0.5,2c-0.3,1.3-0.1,2.6,0.6,3.7c0.5,0.9,1.3,1.6,2.3,2c0,0,0,0,0,0
			c-3.7,2.2-6.1,5.6-7.2,9.9c-1,4.3-0.4,8.5,1.9,12.1c0,0,0,0,0,0c1.4,2.2,3.1,3.9,5.2,5.1l0,0l3,2l0,0c0.7,0.5,1.5,0.9,2.4,1.2
			c1.3,0.5,2.5,0.9,3.8,1.1c2.8,0.5,5.7,0.2,8.5-0.9c4-1.6,7-4.6,8.7-8.6c1.7-4.1,1.7-8.3,0.1-12.2c2.4,0.6,4.9-0.6,5.8-2.9l0.7-1.7
			c0.6-1.3,1.1-1.7,1.5-1.9c0.4-0.2,1.1-0.5,2.3-0.8C162.7,121.9,162.9,121.4,163,120.9z"/>
		<linearGradient id="SVGID_9_" gradientUnits="userSpaceOnUse" x1="126.0334" y1="58.4232" x2="162.3012" y2="136.1998">
			<stop  offset="0.106" style="stop-color:#DE00FF"/>
			<stop  offset="0.9085" style="stop-color:#9A00FF"/>
		</linearGradient>
		<path class="st0009" d="M182.6,81.7c-3.2-5.1-8.2-9.4-14.8-13l0,0l-5.9-3.3l0,0c-3.7-2.1-8.1-3.7-13.1-4.9
			c-9.1-2.2-17.7-2.5-25.4-0.8c-1.9,0.4-3.3,1.8-3.8,3.7l-4.4,18.1c-0.4,1.7,0.1,3.5,1.4,4.7c0.9,0.9,2,1.3,3.2,1.4l10.6,0.9
			c0.4,0,0.7,0,1.1,0c3.2-0.3,6.2-0.3,9.1,0.2c-0.6,0.3-1.4,0.6-2.4,0.9c0,0,0,0-0.1,0l-3.5,1.2c0,0-0.1,0-0.1,0.1
			c-3.8,1.5-6.9,3.8-9.3,6.9c-2.3,2.9-4,6.5-4.9,10.4l-0.5,2c-0.3,1.3-0.1,2.6,0.6,3.7c0.5,0.9,1.3,1.6,2.3,2c0,0,0,0,0,0
			c-3.7,2.2-6.1,5.6-7.2,9.9c-1,4.3-0.4,8.5,1.9,12.1c0,0,0,0,0,0c1.4,2.2,3.1,3.9,5.2,5.1l0,0l3,2l0,0c0.7,0.5,1.5,0.9,2.4,1.2
			c1.3,0.5,2.5,0.9,3.8,1.1c2.8,0.5,5.7,0.2,8.5-0.9c4-1.6,7-4.6,8.7-8.6c1.7-4.1,1.7-8.3,0.1-12.2c2.4,0.6,4.9-0.6,5.8-2.9l0.7-1.7
			c0.6-1.3,1.1-1.7,1.5-1.9c0.8-0.4,2.9-1.2,8.1-2.3c5-1.1,8.8-2.4,11.7-4.3c3.2-2,5.7-5.2,7.4-9.3C187.4,96,186.8,88.5,182.6,81.7z
			"/>
		<path class="st00010" d="M170.7,72.4c-4.9-5.6-12.3-9.5-22-11.9c-9.1-2.2-17.7-2.5-25.4-0.8c-1.9,0.4-3.3,1.8-3.8,3.7l-4.4,18.1
			c-0.4,1.7,0.1,3.5,1.4,4.7c1.3,1.2,3.1,1.7,4.7,1.2c6-1.6,11.8-1.8,17.4-0.4c1.6,0.4,2.6,0.8,3.2,1.1c-0.7,0.3-1.9,0.8-3.8,1.5
			c0,0,0,0-0.1,0l-3.5,1.2c0,0-0.1,0-0.1,0.1c-3.8,1.5-6.9,3.8-9.3,6.9c-2.3,2.9-4,6.5-4.9,10.4l-0.5,2c-0.3,1.3-0.1,2.6,0.6,3.7
			c0.5,0.9,1.3,1.6,2.3,2c0,0,0,0,0,0c-3.7,2.2-6.1,5.6-7.2,9.9c-1,4.3-0.4,8.5,1.9,12.1c0,0,0,0,0,0c2.3,3.6,5.6,6,9.9,7.1
			c1.3,0.3,2.6,0.5,3.9,0.5c2.9,0,5.7-0.8,8.2-2.3c3.7-2.2,6.2-5.6,7.2-9.9c1-4.3,0.4-8.5-1.9-12.1c2.4,0.2,4.7-1.3,5.3-3.8l0.4-1.8
			c0.3-1.4,0.9-1.9,1.2-2.1c0.7-0.5,2.7-1.6,7.7-3.5c4.8-1.9,8.3-3.9,10.8-6.1c2.8-2.5,4.7-6,5.8-10.4
			C177.8,85.7,176,78.4,170.7,72.4z"/>
		<g>
			<g>
				<linearGradient id="SVGID_10_" gradientUnits="userSpaceOnUse" x1="120.2553" y1="102.1188" x2="171.3654" y2="102.1188">
					<stop  offset="0" style="stop-color:#1D293B"/>
					<stop  offset="0.8992" style="stop-color:#0B1629"/>
				</linearGradient>
				<path class="st00011" d="M131.2,140.3c-0.9,0-1.8-0.1-2.7-0.3c-2.9-0.7-5.2-2.3-6.7-4.7c-1.5-2.4-1.9-5.1-1.2-8.1
					c0.7-2.9,2.3-5.1,4.8-6.6c1.7-1,3.4-1.5,5.3-1.5c0.9,0,1.8,0.1,2.8,0.3c2.9,0.7,5.2,2.3,6.7,4.7c1.5,2.4,2,5.2,1.3,8.1
					c-0.7,2.8-2.3,5.1-4.8,6.6C134.9,139.7,133.2,140.3,131.2,140.3z M130.7,122.5c-1.2,0-2.4,0.3-3.5,1c-1.7,1-2.7,2.4-3.1,4.4
					c-0.5,2-0.2,3.7,0.8,5.4c1,1.7,2.5,2.7,4.5,3.2c2,0.5,3.8,0.2,5.5-0.8c1.7-1,2.7-2.4,3.2-4.4c0.5-2,0.2-3.7-0.8-5.3
					c-1.1-1.7-2.5-2.7-4.6-3.2C131.9,122.6,131.3,122.5,130.7,122.5z M143.6,115.6c-0.1,0-0.3,0-0.4,0l-16.5-4
					c-0.5-0.1-0.9-0.4-1.1-0.8c-0.2-0.4-0.3-0.9-0.2-1.3c0.8-3.2,2.1-6,3.9-8.3c1.9-2.3,4.2-4.1,7.1-5.2c0,0,0,0,0.1,0l3.4-1.2
					c2.6-0.9,4.5-1.7,5.7-2.5c1.2-0.8,1.9-1.8,2.3-3.1c0.4-1.6-0.1-3.1-1.4-4.3c-1.3-1.2-3.4-2.1-6.4-2.8c-2.9-0.7-5.9-1.1-8.9-1.1
					c-2.6,0-5.2,0.3-7.8,0.8c-0.6,0.1-1.2-0.1-1.6-0.5c-0.4-0.4-0.6-1.1-0.4-1.6l3.2-13.5c0.2-0.7,0.7-1.2,1.4-1.3
					c2.6-0.5,5.2-0.7,8-0.7c4.3,0,8.9,0.6,13.7,1.7c8.6,2.1,15.1,5.5,19.3,10.2c4.2,4.8,5.5,10.1,4,16.4c-0.8,3.4-2.2,6-4.2,7.7
					c-2,1.8-5.1,3.5-9.2,5.1c-4.2,1.6-7.1,3-8.7,4.1c-1.6,1.1-2.7,2.8-3.3,5C145.1,115.1,144.4,115.6,143.6,115.6z M129.3,108.6
					l13.1,3.2c0.9-2.3,2.3-4.1,4.2-5.4c1.9-1.3,5-2.8,9.5-4.5c3.7-1.4,6.4-2.9,8.1-4.4c1.4-1.3,2.5-3.3,3.1-5.9
					c1.2-5.1,0.2-9.3-3.2-13.2c-3.7-4.2-9.5-7.2-17.4-9.1c-4.5-1.1-8.8-1.6-12.9-1.6c-2.1,0-4.2,0.2-6.2,0.5l-2.4,9.8
					c2-0.3,3.9-0.4,5.8-0.4c3.3,0,6.6,0.4,9.7,1.2c3.5,0.9,6.1,2,7.9,3.6c2.3,2,3.2,4.9,2.5,7.8c-0.5,2.2-1.8,4-3.8,5.3
					c-1.4,0.9-3.5,1.8-6.4,2.8l-3.4,1.2c-2.3,0.9-4.2,2.3-5.6,4.1C130.9,104.8,130,106.6,129.3,108.6z"/>
			</g>
		</g>
	</g>
</g>
<g>
	<g>
		<text transform="matrix(0.991 -0.1338 0.1338 0.991 44.4699 142.3743)" class="st0005 st00012 st00013">WORK</text>
	</g>
	<g>
		<text transform="matrix(0.991 -0.1338 0.1338 0.991 36.9065 94.5729)" class="st00010 st00012 st00014">HOW</text>
	</g>
	<g>
		<text transform="matrix(0.991 -0.1338 0.1338 0.991 48.1459 110.0388)" class="st00010 st00015 st00016">DOES IT</text>
	</g>
</g>
</svg>
