<?xml version="1.0" encoding="utf-8"?>
<!-- Generator: Adobe Illustrator 23.0.3, SVG Export Plug-In . SVG Version: 6.00 Build 0)  -->
<svg version="1.1" id="Layer_1" xmlns="http://www.w3.org/2000/svg" xmlns:xlink="http://www.w3.org/1999/xlink" x="0px" y="0px"
	 viewBox="0 0 3800 2646.2" style="enable-background:new 0 0 3800 2646.2;" xml:space="preserve">
<style type="text/css">
	.st0{fill:#FFFFFF;}
	.st1{fill:#CAE7F5;}
	.st2{fill:#D7EDF4;}
	.st3{fill:#F3F7FF;}
	.st4{fill:#EBF6FC;}
	.st5{fill:#7FC3EA;}
	.st6{fill:#A9D9ED;}
	.st7{fill:#70B2ED;}
	.st8{fill:#5E9EDD;}
	.st9{fill:#6AABDB;}
	.st10{fill:#BBCFE8;}
	.st11{fill:#A6C0DD;}
	.st12{fill:#031C35;}
	.st13{fill:#1E3063;}
	.st14{fill:#FF6C3C;}
	.st15{fill:#F75B31;}
	.st16{fill:#142751;}
	.st17{fill:#8491AD;}
	.st18{fill:#909AAF;}
	.st19{fill:#A4ACC1;}
	.st20{fill:#E8EDF9;}
	.st21{fill:#C7C7EA;}
	.st22{fill:#ABABDB;}
	.st23{fill:#ABABD8;}
	.st24{fill:#A00A1C;}
	.st25{fill:#ED4E29;}
	.st26{fill:#CACAED;}
	.st27{fill:#F9F9F9;}
	.st28{fill:#FF9069;}
	.st29{fill:#B71632;}
	.st30{fill:#EEF2FF;}
	.st31{fill:#DFE6F4;}
	.st32{fill:#FF8650;}
	.st33{fill:#283F72;}
	.st34{fill:#2D4987;}
	.st35{fill:#E6E7E8;}
	.st36{fill:#87061C;}
	.st37{fill:#FF815A;}
	.st38{fill:#D7D7F4;}
	.st39{fill:#4F82DB;}
	.st40{fill:#476FD1;}
	.st41{fill:#FF613B;}
	.st42{fill:#FF885F;}
	.st43{fill:#5A90E0;}
	.st44{fill:#F25130;}
	.st45{fill:#1D4191;}
	.st46{fill:#D2E4F9;}
	.st47{fill:#75ACFC;}
	.st48{fill:#EEEEFF;}
	.st49{fill:#7A3030;}
	.st50{fill:#FFA561;}
	.st51{fill:#7878BA;}
	.st52{fill:#E9E9FF;}
	.st53{fill:#FFDA3E;}
	.st54{fill:#FFCC3E;}
	.st55{fill:#FFEE52;}
	.st56{fill:#0F0F59;}
	.st57{clip-path:url(#SVGID_2_);fill:#FFE474;}
	.st58{fill:#F96C37;}
	.st59{fill:#F9D038;}
	.st60{fill:#C9DCDF;}
	.st61{fill:#71A6C7;}
	.st62{fill:#F9F2E8;}
	.st63{fill:#FFE255;}
	.st64{fill:#EB8E6C;}
	.st65{fill:#191960;}
	.st66{fill:#121251;}
	.st67{fill:#1E2F47;}
	.st68{fill:#17253F;}
	.st69{fill:#04041C;}
	.st70{fill:#EA8D81;}
	.st71{fill:#E27C74;}
	.st72{fill:#F0F4F7;}
	.st73{fill:#DB7B6E;}
	.st74{fill:#F6A698;}
	.st75{fill:#E5867F;}
	.st76{fill:#1C2546;}
	.st77{fill:#DD7472;}
	.st78{fill:#49302A;}
	.st79{fill:#A7D4E8;}
	.st80{fill:#F7BF41;}
	.st81{fill:#EAAD34;}
	.st82{fill:#FFD147;}
	.st83{fill:#3845B8;}
	.st84{fill:#F8F8FF;}
	.st85{fill:#EDEDF9;}
	.st86{fill:#DF7C5D;}
	.st87{fill:#C36252;}
	.st88{fill:#DD8064;}
	.st89{fill:#474B4C;}
	.st90{fill:#092226;}
	.st91{fill:#97BFFF;}
	.st92{fill:#E89F1F;}
	.st93{fill:#EFB135;}
	.st94{fill:#1C1C70;}
</style>
<title>carcrash</title>
<g>
	<polyline class="st0" points="0,0 3800,0 3800,2000 0,2000 0,0 	"/>
	<path class="st1" d="M2903.6,875.8c-266.3,7.8-524-28.4-717.9-172.5c-97.8-72.7-754.1-557-1544.4-190.9
		c-103.4,47.9-374.2,160.1-515.5,432.8c-303.1,584.8,16.8,909.8,171.6,956.3c38.8,11.6,3159.9,13.1,3176,2
		C4144.8,1440.1,3694.8,852.5,2903.6,875.8"/>
	<rect x="1469.4" y="300.2" class="st2" width="163.6" height="1204"/>
	<rect x="915.4" y="461.6" class="st2" width="329.3" height="1042.6"/>
	<rect x="1602.4" y="644.8" class="st3" width="244.3" height="859.4"/>
	<rect x="1807" y="644.8" class="st2" width="204.5" height="859.4"/>
	<rect x="2460" y="601.2" class="st2" width="106.9" height="903"/>
	<rect x="760.5" y="461.6" class="st3" width="309.7" height="1042.6"/>
	<rect x="2121.5" y="260.9" class="st2" width="305.4" height="1243.2"/>
	<rect x="2353.1" y="601.2" class="st3" width="144" height="903"/>
	<rect x="2566.9" y="858.5" class="st2" width="122.1" height="645.6"/>
	<rect x="2460" y="858.5" class="st3" width="181" height="645.6"/>
	<rect x="2870.1" y="417.9" class="st2" width="185.4" height="1086.2"/>
	<rect x="2684.7" y="417.9" class="st3" width="301" height="1086.2"/>
	<rect x="1161.8" y="813.8" class="st4" width="114" height="690.3"/>
	<rect x="1247.4" y="899.5" class="st4" width="184.5" height="604.7"/>
	<rect x="1375.6" y="300.2" class="st3" width="187.6" height="1204"/>
	<rect x="2043.3" y="222.5" class="st3" width="153" height="54"/>
	<rect x="1644.5" y="617.8" class="st3" width="119.6" height="54"/>
	<rect x="804.5" y="434.6" class="st3" width="179.5" height="54"/>
	<rect x="2811.1" y="390.9" class="st3" width="120.3" height="54"/>
	<rect x="1968.9" y="260.9" class="st3" width="349" height="1243.2"/>
	<rect x="2184.3" y="144.5" class="st3" width="30" height="155.6"/>
	<rect x="968.9" y="356.7" class="st3" width="30" height="155.6"/>
	<rect x="2794" y="325.1" class="st3" width="37.7" height="155.6"/>
	<rect x="1428.4" y="222.3" class="st3" width="18.8" height="155.7"/>
	<rect x="929.4" y="313.1" class="st3" width="18.8" height="155.6"/>
	<rect x="2880.8" y="276.5" class="st3" width="18.8" height="155.7"/>
	<rect x="2015.1" y="342.5" class="st2" width="249.4" height="14.2"/>
	<rect x="2015.1" y="392.5" class="st2" width="249.4" height="14.2"/>
	<rect x="2015.1" y="442.5" class="st2" width="249.4" height="14.2"/>
	<rect x="2015.1" y="492.5" class="st2" width="249.4" height="14.2"/>
	<rect x="2015.1" y="542.5" class="st2" width="249.4" height="14.2"/>
	<rect x="2015.1" y="592.5" class="st2" width="249.4" height="14.2"/>
	<rect x="2015.1" y="642.5" class="st2" width="249.4" height="14.2"/>
	<rect x="2015.1" y="692.5" class="st2" width="249.4" height="14.2"/>
	<rect x="2015.1" y="742.5" class="st2" width="249.4" height="14.2"/>
	<rect x="2015.1" y="792.5" class="st2" width="249.4" height="14.2"/>
	<rect x="2015.1" y="842.5" class="st2" width="249.4" height="14.2"/>
	<rect x="2015.1" y="892.5" class="st2" width="249.4" height="14.2"/>
	<rect x="2015.1" y="942.5" class="st2" width="249.4" height="14.2"/>
	<rect x="2015.1" y="992.5" class="st2" width="249.4" height="14.2"/>
	<rect x="2015.1" y="1042.5" class="st2" width="249.4" height="14.2"/>
	<rect x="2015.1" y="1092.5" class="st2" width="249.4" height="14.2"/>
	<rect x="2015.1" y="1142.5" class="st2" width="249.4" height="14.2"/>
	<rect x="2015.1" y="1192.5" class="st2" width="249.4" height="14.2"/>
	<rect x="2015.1" y="1242.5" class="st2" width="249.4" height="14.2"/>
	<rect x="2015.1" y="1292.5" class="st2" width="249.4" height="14.2"/>
	<rect x="2015.1" y="1342.5" class="st2" width="249.4" height="14.2"/>
	<rect x="1414.8" y="349.6" class="st2" width="13.6" height="57.1"/>
	<rect x="1465.9" y="416.4" class="st2" width="13.5" height="57.1"/>
	<rect x="1414.8" y="535.4" class="st2" width="13.6" height="57.1"/>
	<rect x="1509.5" y="621.1" class="st2" width="13.6" height="57.1"/>
	<rect x="1465.9" y="621.1" class="st2" width="13.5" height="57.1"/>
	<rect x="1401.3" y="721.1" class="st2" width="13.6" height="57.1"/>
	<rect x="1472.6" y="792.5" class="st2" width="13.6" height="57.1"/>
	<rect x="1421.6" y="921.1" class="st2" width="13.6" height="57.1"/>
	<rect x="1516.3" y="1014" class="st2" width="13.6" height="57.1"/>
	<rect x="1472.6" y="1106.7" class="st2" width="13.6" height="57.1"/>
	<rect x="1435.1" y="1375.2" class="st2" width="13.5" height="57.1"/>
	<rect x="1435.1" y="1197.7" class="st2" width="13.5" height="57.1"/>
	<rect x="1401" y="1197.7" class="st2" width="13.5" height="57.1"/>
	<rect x="1479.4" y="1276.7" class="st2" width="13.6" height="57.1"/>
	<rect x="1459.1" y="921.1" class="st2" width="13.5" height="57.1"/>
	<rect x="1598.9" y="742.5" class="st2" width="204.5" height="35.6"/>
	<rect x="1598.9" y="811.8" class="st2" width="204.5" height="35.6"/>
	<rect x="797.5" y="518.7" class="st2" width="20.7" height="863.9"/>
	<rect x="847.5" y="518.7" class="st2" width="20.7" height="863.9"/>
	<rect x="897.5" y="518.7" class="st2" width="20.7" height="863.9"/>
	<rect x="947.5" y="518.7" class="st2" width="20.7" height="863.9"/>
	<rect x="997.5" y="518.7" class="st2" width="20.7" height="863.9"/>
	<rect x="2394.4" y="656.7" class="st2" width="29" height="55.6"/>
	<rect x="2394.4" y="771.8" class="st2" width="29" height="55.6"/>
	<rect x="2394.4" y="893.3" class="st2" width="29" height="55.7"/>
	<rect x="2394.4" y="1014.7" class="st2" width="29" height="55.6"/>
	<rect x="2548.9" y="1014.7" class="st2" width="29" height="55.6"/>
	<rect x="2394.4" y="1198.4" class="st2" width="29" height="55.7"/>
	<rect x="2548.9" y="1198.4" class="st2" width="29" height="55.7"/>
	<rect x="2548.9" y="893.3" class="st2" width="29" height="55.7"/>
	<rect x="2478.9" y="950.4" class="st2" width="29" height="55.6"/>
	<rect x="2478.9" y="1107.5" class="st2" width="29" height="55.7"/>
	<rect x="2479.1" y="1286.6" class="st2" width="29" height="55.7"/>
	<rect x="2479.1" y="1376" class="st2" width="29" height="55.6"/>
	<rect x="2548.9" y="1107.5" class="st2" width="29" height="55.7"/>
	<rect x="2736.4" y="488.6" class="st2" width="45" height="68.2"/>
	<rect x="2809.2" y="605.6" class="st2" width="45" height="68.2"/>
	<rect x="2809.2" y="715.5" class="st2" width="45" height="68.2"/>
	<rect x="2809.2" y="830.7" class="st2" width="45" height="68.2"/>
	<rect x="2736.4" y="922.6" class="st2" width="45" height="68.2"/>
	<rect x="2835" y="1036.3" class="st2" width="45" height="68.2"/>
	<rect x="2736.4" y="1137.2" class="st2" width="45" height="68.2"/>
	<rect x="2892.9" y="1242.6" class="st2" width="45" height="68.2"/>
	<rect x="2892.9" y="1348.6" class="st2" width="45" height="68.2"/>
	<rect x="2835" y="1139.2" class="st2" width="45" height="68.2"/>
	<rect x="2892.9" y="918" class="st2" width="45" height="68.2"/>
	<rect x="1158.2" y="992.5" class="st2" width="213.8" height="14.2"/>
	<rect x="1158.2" y="1045.5" class="st2" width="213.8" height="14.2"/>
	<rect x="-17.6" y="1894.1" class="st5" width="3820.6" height="911.1"/>
	<path class="st6" d="M343,1289.4c-0.4,0.7-0.6,1.1-0.6,1.1S342.6,1290.1,343,1289.4z"/>
	<path class="st7" d="M541.4,1257.9c-20.5-3-37.5,8.6-47.8,15.2c-52.7,33.8-104.7,48.6-106.5,45.6c-2.8-4.5,104.6-52.8,115.2-126
		c1.1-7.9,5.5-37.9-10.9-50c-9.6-7.1-22.2-5-26.1-4.4c-25.3,4.2-41.2,27.8-50,41.3c-24.7,37.8-63.5,100.9-68.9,109.8
		c-0.4,0.7-0.6,1.1-0.6,1.1c0,0,0.2-0.4,0.6-1.1c7.1-12,70.4-124.6,47.2-205.4c-2.2-7.6-8.9-30.9-21.7-32.6
		c-15.2-2-30.7,27.3-36.9,39.1c-16.5,31.2-20.1,59.7-21.7,73.9c-7.9,69.5-4.8,130.3-6.5,130.4c-1.3,0.1,0.2-33.4-17.4-69.5
		c-4-8.3-19.8-40.8-36.9-39.1c-4.1,0.4-11.9,2.9-19.6,19.6c-53,115.1,35.4,271.9,67,294.6c76.9,55.3,253.3-70,250.3-107.7
		c-3-38.2-159.1,40.9-166,18.3c-1-3.3,95.4-23.4,157.4-79.1c8.4-7.5,37.7-34,30.4-54.3C567.6,1265.6,552.3,1259.5,541.4,1257.9z"/>
	<path class="st6" d="M343,1289.4c-0.4,0.7-0.6,1.1-0.6,1.1S342.6,1290.1,343,1289.4z"/>
	<path class="st8" d="M371.9,1051.4c-15.2-2-30.7,27.3-36.9,39.1c-16.5,31.2-20.1,59.7-21.7,73.9c-7.9,69.5-4.8,130.3-6.5,130.4
		c-1.3,0.1,0.2-33.4-17.4-69.5c-4-8.3-19.8-40.8-36.9-39.1c-4.1,0.4-11.9,2.9-19.6,19.6c-53,115.1,35.4,271.9,67,294.6
		c16.5,11.9,37.6,15.4,60.6,13.3c8.3-33.4,12.4-75.8-10.6-98.5c-11-10.9-31.9-20.7-36.8-15.8c-6.5,6.6,18,36.4,15.8,38.1
		c-3.4,2.6-71.4-54.6-72.3-123.6c-0.1-5.1-0.5-38.8,13.1-43.4c2.9-1,8.2-1.3,18.4,6.6c32,24.7,34.2,70.2,38.1,69.7
		c4.3-0.5-1.8-55.2,2.6-123.6c1.4-20.7,4-41.4,7.9-61.8c5.7-29.8,9-46.7,19.7-65.7c7.3-13,16.8-24.6,27.8-34.6
		C381,1056.1,377,1052.1,371.9,1051.4z"/>
	<path class="st8" d="M363.8,1131.8c-5,8.6-10.2,21.8-8.8,25.1c1.2,2.9,7.4-2.3,11.6-8.5c7.1-10.1,12.1-27,10.5-30.1
		C375.6,1115.5,368.4,1124,363.8,1131.8z"/>
	<path class="st8" d="M344.5,1195.6c-7,14.7-2.2,43,0.7,43.4c3.8,0.5,10.4-45.1,6.1-50C349.5,1187,346,1192.5,344.5,1195.6z"/>
	<path class="st8" d="M429.1,1182.5c-5.2,9.2-8,22.3-5.3,23.7c5.5,2.6,34.6-39.3,30.2-43.4C451.6,1160.4,436.8,1168.8,429.1,1182.5z
		"/>
	<path class="st8" d="M438.3,1225.8c-8,3.9-17.4,11.8-15.8,15.8c1.6,4,13.5,4,22.4,0c9.9-4.4,17.9-14.6,15.8-18.4
		C458.5,1219.4,446.5,1221.9,438.3,1225.8z"/>
	<path class="st8" d="M398.9,1224.5c-2.4-1.3-13.6,11-17.1,26.3c-1.8,7.9-2.2,19.2,0,19.7C386.4,1271.5,403.1,1226.7,398.9,1224.5z"
		/>
	<path class="st8" d="M264.8,1296.8c-3.1,1.8,1.2,18.1,10.5,30.2c4.2,5.4,11.9,13.4,14.5,11.8c3-1.8-1.5-16.5-9.2-27.6
		C276,1304.7,267.6,1295.2,264.8,1296.8z"/>
	<path class="st8" d="M359.5,1337.6c-9,7.9-11.2,21.5-7.9,23.7c5.8,3.8,33.7-22.9,30.2-28.9C379.9,1329,367.5,1330.6,359.5,1337.6z"
		/>
	<path class="st8" d="M429.1,1352c-8.8-0.3-19.7,1.9-19.7,4c0,4.2,43.7,9.3,44.7,5.3C454.7,1359,442.2,1352.5,429.1,1352z"/>
	<path class="st8" d="M458.1,1316.5c-3.4,3.5-10,11.5-7.9,14.5c2.1,3,11.7,0.5,18.4-3.9c9.9-6.6,16-19.4,13.1-22.3
		S466,1308.3,458.1,1316.5z"/>
	<path class="st8" d="M527.7,1294.2c-11.9,3.8-21.4,14.3-19.7,17.1c2.9,5.1,44.4-9.9,43.4-15.8
		C550.9,1292.4,538.1,1290.9,527.7,1294.2z"/>
	<path class="st8" d="M387.1,1438.8c-11.6,12.8-15,31.2-11.8,32.9c5.5,2.8,37.4-41.6,32.9-46
		C405.9,1423.4,394.2,1430.9,387.1,1438.8z"/>
	<path class="st8" d="M437,1453.2c-2.9,0-5.9,0.3-8.8,0.8c-3.7,0.7-9.6,1.9-9.6,3.1c-0.1,3.3,43.7,9.3,44.7,5.3
		C463.9,1460,448.9,1453.3,437,1453.2z"/>
	<path class="st8" d="M464.6,1411.2c-8.3,7-14.3,18.7-11.8,21c4.7,4.4,42.2-23.3,39.4-28.9C490.7,1400.1,475.3,1402.2,464.6,1411.2z
		"/>
	<path class="st7" d="M3367.2,1242.9c-8.3-7.3-28.6-4.7-37,22.8c-10.3,33.6-6.7,76.1-7.9,76.1c-0.7,0-2.2-36.3-8.3-73.9
		c-11.9-73.6-32.3-96.9-39.4-104.2c-4.5-4.6-20.6-21.1-31.6-16c-9.5,4.4-13.4,22.8-11.1,43.1c8.3,73.9,41.7,152.5,31.8,153.6
		c0,0-33.7-97-68.7-135c-16.1-17.5-50.1-37.1-65.2-24.3c-8.3,7-8.7,22.1-8.8,28.3c-0.5,17.8,6.2,32.6,19.9,56.8
		c22.3,39.3,54.1,77.3,52.3,79.3c-1.8,2.1-32.2-38.8-59-42.1c-12.4-1.5-29.8,2.3-35.6,15.9c-7,16.3,5.8,39.4,19.7,64
		c13,23,32.5,56.5,70.2,84.8c26.4,19.8,58.6,43.9,94.4,38.5c71.8-10.9,93.2-131,96.9-152C3383.2,1339,3395.8,1268,3367.2,1242.9z"/>
	<path class="st8" d="M3367.2,1242.9c-8.3-7.3-28.6-4.7-37,22.8c-10.3,33.6-6.7,76.1-7.9,76.1c-0.7,0-2.2-36.3-8.3-73.9
		c-11.9-73.6-32.3-96.9-39.4-104.2c-4.5-4.6-20.6-21.1-31.6-16c-4.2,2-7.4,6.8-9.3,13.3c5-0.4,9.9,0.4,14.6,2.1
		c11.2,4.3,17.2,14,21,21.2c37.3,70.1,28.5,158.8,28.5,158.8c-4.6,46.8-16.3,87.1-14,87.7c2.6,0.7,13.6-50.2,24.7-49.5
		c8.3,0.5,13.1,29.5,14.4,42.5c1.4,14.8,1.4,41.4-14.6,77.5c51.6-31,68.2-124.4,71.4-142.7C3383.2,1339,3395.8,1268,3367.2,1242.9z"
		/>
	<path class="st8" d="M3139.1,1368.4c-5.8-1.9-19.3-5.1-21.8-0.5c-3.1,5.5,9.3,23.2,24.8,24.5c7.5,0.6,17-2.5,17.9-7.4
		C3161.1,1378.8,3148.1,1371.4,3139.1,1368.4z"/>
	<path class="st8" d="M3193.3,1367.9c-2.5,0.2-4.3,8.3-4.3,14.9c0.2,11.5,6.4,23,9.5,22.4c3-0.7,3.2-12.1,1.9-20.2
		C3199.3,1377.6,3196.1,1367.7,3193.3,1367.9z"/>
	<path class="st8" d="M3196.5,1433.2c-8-3.4-22.3-8-23.9-5s10.4,14.3,23.9,20.8c12,5.8,27.5,8.9,29,5.7
		C3227.1,1451.2,3211.6,1439.6,3196.5,1433.2z"/>
	<path class="st8" d="M3177.6,1211.8c-2.4,0.2-3.8,9.9-3.8,16.7c0,15.2,7.2,29.7,10.1,29.1c2.6-0.5,1.9-13.6,1.7-17.2
		C3184.8,1227,3180.7,1211.6,3177.6,1211.8z"/>
	<path class="st8" d="M3184.3,1283.3c-7.3-6.6-17.9-12.2-20.2-9.8c-2.3,2.4,4.2,12.3,9.5,18.4c8.6,9.9,21.8,18.3,24.6,15.7
		C3200.9,1304.9,3193.8,1291.8,3184.3,1283.3z"/>
	<path class="st8" d="M3232.1,1313c-2.6,0-5.6,9.4-5.4,18.1c0.3,13.3,8.2,25.7,11.1,24.9c3.1-0.8,1.1-17.5,0.5-21.9
		C3237.9,1331.3,3235.6,1313,3232.1,1313z"/>
	<path class="st8" d="M3229.2,1381.8c-3.8,2-2,15.7,4.3,25.6c6.6,10.4,19,17.9,22.5,15.2c3.7-2.9-2.5-17.6-9.7-27.2
		C3242.1,1389.5,3233,1379.7,3229.2,1381.8z"/>
	<path class="st8" d="M3251.3,1447.4c-5.7-3.3-13.9-5.5-15.6-3.1c-2.7,4,14.1,19.4,14.8,20c4.4,4,14.9,13.5,17.6,11.5
		C3271.2,1473.5,3265.1,1455.3,3251.3,1447.4z"/>
	<path class="st8" d="M3244.9,1188.4c-3.3,0.8-2.8,15.8,0.8,27.4c0.9,2.9,3.1,9.7,5.3,9.6c2.4-0.2,4.5-8.5,4-15.8
		C3254.3,1198.6,3247.8,1187.7,3244.9,1188.4z"/>
	<path class="st8" d="M3272.8,1249.7c-3.2,0-5.9,10.3-6.8,16.5c-2,14.3,2.5,30,6.4,30c3.4,0,6.4-11.5,7.1-19.5
		C3280.5,1263.8,3276.5,1249.7,3272.8,1249.7z"/>
	<path class="st8" d="M3279.8,1342.7c-2.9-0.9-8.3,9.1-11.2,14.6c-0.9,1.6-10.1,18.7-6.6,21.4c2.3,1.7,9.4-2.8,13.8-8.3
		C3284,1359.8,3283.2,1343.7,3279.8,1342.7z"/>
	<path class="st8" d="M3307,1405.1c-2.6-0.3-5.6,9.2-7.3,14.6c-4.1,13.1-7.2,32.3-3.6,33.5c3.1,1,11.4-11.1,13.8-24.1
		C3312.1,1417.8,3309.9,1405.4,3307,1405.1z"/>
	<path class="st9" d="M1910.4,1751.7c814.7,0,1475.1,24.9,1475.1,55.7c0,30.7-660.4,55.7-1475.1,55.7
		c-814.7,0-1475.1-24.9-1475.1-55.7C435.3,1776.6,1095.7,1751.7,1910.4,1751.7"/>
	<path class="st10" d="M2337.1,1241.2c23.2-39.6,23.3-88.4-3.9-124.6c-24.8-33-66-47-106.9-40.6c5.8-55-18.4-107.7-65.5-130.9
		c-39.2-19.3-85-13.6-122.3,10.9c-10.1-48.8-40-86-80.9-93.5c-44-8.1-88.4,20.6-114.7,68.6c-28.4-49.3-75.5-77.6-120.3-67.2
		c-52.7,12.3-84.4,74.1-77.5,144.2c-36.7-12.8-80.9-6.6-116.5,20.2c-42.5,32-60.2,83.8-48.1,128.5c-31.6,2.7-57.4,16.5-69,40.1
		c-12,24.3-6.6,54,11.6,81.2c-26.5,3.4-47.5,16-55.8,36.4c-14.9,36.6,17.4,84.3,72.1,106.5c42.4,17.2,78.8,72.6,103.1,53.3
		c14.7,13,24,34.3,45.6,39.2c57.5,71.9,184.2,50.5,310.4,50.5c130.3,0,238.9,14,294.7-61.8c33.8,16,89-54.6,135.7-81.5
		c64-37,95.9-101.7,71.2-144.6C2388.2,1255.5,2365.1,1243.7,2337.1,1241.2z"/>
	<path class="st10" d="M1954.2,862.5c-7.5-1.4-15.1-1.7-22.7-1c1.8,0.3,3.5,0.7,5.2,1.2c27.8,8.6,48.1,51.6,55,107.8
		c12.6-14,26.6-22.7,40.8-25.1C2020.5,901.9,1992,869.5,1954.2,862.5z"/>
	<path class="st11" d="M2333.6,1241.2c23.2-39.6,23.3-88.4-3.9-124.6c-24.8-33-66-47-106.8-40.6c5.8-55-18.4-107.7-65.5-130.9
		c-33.2-16.4-71.2-14.8-104.7,1c8.2,2.2,15.7,6.3,22.2,11.8c32,26.7,48.5,87.4,44.5,150.8c27.7-7.4,55.8,8.8,72.6,46.8
		c18.5,41.6,18.4,97.9,2.6,143.5c19,2.8,34.7,16.4,42.9,40.4c10.3,30.2,6.2,69.8-8.5,105.8c29.4,2.3,64-5.7,96.5-24.5
		c64-37,95.9-101.7,71.2-144.6C2384.7,1255.5,2361.6,1243.7,2333.6,1241.2z"/>
	<path class="st11" d="M2060.3,1333.5c-10.2-5.4-23.3-7.1-38-5.7c3-3.7,5.6-7.6,7.8-11.8c17.2-33.2-1.3-68.7-41.2-79.3
		c-29.7-7.9-62.8,0.1-85,18.4c-3.2-40.6-38.3-72.5-81-72.5c-44.8,0-81.2,35.2-81.2,78.7c0,4.9,0.5,9.9,1.4,14.7
		c-24-8.9-50-9.1-67.8,1.2c-27.1,15.6-25.3,49.6,4.1,75.9c4.7,4.2,9.7,7.9,15.1,11.2c-22.5-1.4-43.8,2.5-60.6,12.2
		c-43.3,25-40.4,79.3,6.6,121.3c29.7,26.5,69.8,41.8,106.3,43.2c23.2,41.6,62.3,68.9,106.8,68.9c33.8,0,64.5-15.8,87.4-41.6
		c3.4,1.4,6.8,2.6,10.3,3.5c39.9,10.6,86.2-7.6,103.4-40.8c13.8-26.7,4.6-54.8-20.3-70.4C2084,1407.8,2095.9,1352.2,2060.3,1333.5z"
		/>
	<path class="st12" d="M3032.3,1522.8c-67-50.2-146.8-20.1-161.4-14.6c-86.9,32.8-145.3,130.8-124.1,163.8
		c8.9,13.8,55.2,30.7,83.4,26.2c5.1-0.8,227.6-19.8,227.6-19.8C3083.6,1639.3,3085.8,1562.8,3032.3,1522.8z"/>
	<path class="st12" d="M2176.1,1580.1c-67-50.2-146.8-20.1-161.4-14.6c-87,32.8-145.3,130.8-124.1,163.8
		c8.9,13.8,52.2,21.3,80.8,20.7c179.5-3.6,227.6-7.4,227.6-7.4C2224.6,1703.5,2229.5,1620.2,2176.1,1580.1z"/>
	<path class="st13" d="M1822.9,1693.4c-3.5,3.7-2.4,10.2-1.3,17.3c0.8,4.7,3.9,23.1,14,25.8c11.6,3,30.7-15.1,27.4-29.4
		C1859.5,1691.6,1830.6,1685.3,1822.9,1693.4z"/>
	<path class="st14" d="M3237.1,1532.3c-0.6-8.2-7.6-14.3-15.8-13.8l-8.7,0.6l-9.5-96.8c-1.1-10.8-9.9-19.1-20.8-19.6
		c-43.1-1.6-145.7-5.8-155.8-8.6c-6.9-1.9-75.6-40.5-110-60.9c-16.1-9.5-41.8-23.8-72.9-33.5c-78.5-24.5-407.8,15.5-457.9,44.3
		l-3,1.7c3.8,0.6,8,1.1,12.5,1.3c5.3,0.3,9.9,0.3,13.7,0.2c6.6-0.1,10.5-0.1,11.3,1.8c1.3,3.6-9.9,10.6-18.1,16.1
		c-17.6,11.7-33.8,25.5-50.7,38.1c-5.2,3.9-45.7,34.1-66.9,55.3c-6.6,6.6-13.7,12.9-21,18.7c-7.2,6-10.1,7.9-13,9.5
		c-7.1,4-14.9,6.6-23,7.7c-13.3,1.7-23.9-1.8-28.1-3.1c-9.7-3-23.5-6.2-44-8.6c-18.2,5.1-40.6,9.6-78.7,18.1
		c-80.5,18-121.3,29.3-165.3,47c-38.2,15.3-53.6,25.3-66.7,40.4c-28,32.3-31.3,71.9-31.2,90c0,3.4-0.1,7.2-0.2,11.1
		c-0.1,3.4,1.5,6.7,4.3,8.8c1.8,1.3,3.9,2.3,6.1,3c6.6,2.1,10.6-0.3,13.8,2.8c4,3.9,2.1,12,0.5,16.1c-1.5,3.8-4.1,7-7.4,9.2
		c-1.7,1.1-3.5,1.8-5.5,2.2c-1,0.2-1.6,1.2-1.3,2.2c0.1,0.3,0.2,0.6,0.5,0.8c1.4,1.3,2.9,2.5,4.5,3.5c14.1,8.9,66.7,12.3,142.8,11.9
		c-0.3-2.9-0.6-5.8-0.8-8.8c-5-74.1,42.1-137.6,105.1-141.8c63-4.2,118.1,52.4,123.1,126.5c0.4,5.5,0.5,11.1,0.2,16.6
		c205.7-10.4,454.3-29.6,631.3-44.4c-0.3-2.4-0.6-4.9-0.7-7.4c-4.2-63,43.4-117.5,106.5-121.7c63-4.2,117.5,43.4,121.7,106.4
		c0.1,1,0.1,1.9,0.2,2.8l1.9-0.2l127.2-47.3c49.9-13.4,54.6-31,54-39.2L3237.1,1532.3"/>
	<path class="st15" d="M3237.1,1532.3c-0.6-8.2-7.6-14.3-15.8-13.8l-8.7,0.6l-9.5-96.8c-1.1-10.8-9.9-19.1-20.8-19.5
		c-43.1-1.6-145.7-5.8-155.8-8.6c-6.9-1.9-75.6-40.5-110-60.9c-16.1-9.5-41.8-23.8-72.9-33.5c-78.5-24.5-407.8,15.5-457.9,44.3
		l-3,1.7c3.8,0.6,8,1.1,12.5,1.3c14.7,0.9,23.8-1,24.9,2c1.3,3.6-9.9,10.6-18.1,16.1c-17.6,11.7-33.8,25.5-50.7,38.1
		c-5.2,3.9-45.7,34.1-66.9,55.3c-6.6,6.6-13.7,12.9-21,18.8c-7.2,6-10.1,7.9-13,9.5c-7.1,4-14.9,6.6-23,7.7
		c-13.3,1.7-23.9-1.8-28.1-3.1c-9.7-3-23.5-6.2-44-8.6c-12.6,3.5-55.5-6.8-80.5-13.4c-12.1-3.2-25-2.2-36.5,2.8l-123.6,54.4
		c0,0-56.9,46.5-70,61.6c-28,32.3-31.3,71.9-31.2,90c0,3.4-0.1,7.2-0.1,11.1c-0.1,3.5,1.5,6.8,4.4,8.8c1.8,1.3,3.9,2.3,6,3
		c6.6,2.1,10.6-0.3,13.8,2.8c4,3.9,2.1,12,0.5,16.1c-1.5,3.8-4.1,7-7.4,9.2c-1.7,1.1-3.6,1.8-5.5,2.2c-1,0.2-1.6,1.2-1.3,2.1
		c0.1,0.3,0.2,0.6,0.5,0.9c1.4,1.3,2.9,2.5,4.5,3.5c14.1,8.9,66.8,12.3,142.8,11.9c-0.3-2.6-0.6-5.3-0.8-7.9
		c-75.9-12.8-129.4-25.5-141.1-47.6c-3.5-6.6-2.2-31.7-2.1-39.6c0,0,0.1-16.6,5.3-31.3c11.4-32.3,66.3-54.8,79-59.8
		c27.5-10.9,49.4-16.5,105.9-28.2c69.8-14.4,123.6-24,138.2-26.6c40.6-7.2,82.4-14.3,107.8-18.4c283.1-45.5,561.9-43.9,720-70.5
		c57.8-9.7,117.2,0.4,175.8-1.9c5.4-0.2,14.6-0.6,23.8,4.6c16.7,9.3,20.6,51.6,27.7,135.7c1.6,19.5,2.6,32.9-4.2,48.6
		c-3.6,8.3-8.7,15.8-15,22.2c45.4-13.2,49.8-30,49.2-37.9L3237.1,1532.3z"/>
	
		<ellipse transform="matrix(0.7071 -0.7071 0.7071 0.7071 -615.067 1981.8352)" class="st13" cx="2084.8" cy="1733.4" rx="102.6" ry="102.6"/>
	<path class="st16" d="M2150.7,1654.8c33.5,45.7,23.5,109.9-22.2,143.4c-38.1,27.9-90.4,26.2-126.6-4.2
		c33.5,45.7,97.7,55.6,143.4,22.1c45.7-33.5,55.6-97.7,22.1-143.4C2162.7,1666.1,2157,1660.1,2150.7,1654.8L2150.7,1654.8z"/>
	<path class="st17" d="M2023.9,1704.5c16-33.6,56.3-47.9,90-31.8c33.6,16,47.9,56.3,31.8,89.9s-56.3,47.9-90,31.8
		C2022.1,1778.4,2007.9,1738.1,2023.9,1704.5z"/>
	<path class="st18" d="M2051.9,1686.7c25.8-18.1,61.4-11.9,79.5,13.8c18.1,25.8,11.9,61.4-13.8,79.5s-61.4,11.9-79.5-13.8
		C2019.9,1740.5,2026.1,1704.9,2051.9,1686.7z"/>
	<path class="st19" d="M2067,1692.3c22.7-9.8,49,0.7,58.8,23.4s-0.7,49-23.4,58.8s-49-0.7-58.8-23.4S2044.2,1702.1,2067,1692.3z"/>
	<path class="st20" d="M2151.6,1724.5l-60.7,6l25.7-56.7c-6-3.2-12.5-5.5-19.2-6.8l-14.7,61.7l-48.8-39.7
		c-4.6,5.3-8.4,11.3-11.2,17.8l55.4,29.1l-49.4,35c4,5.9,8.9,11.2,14.5,15.6l39.6-48l16.8,59l19.5-10.8l-31.5-48.9l63.2,8.6
		c1.1-5.8,1.5-11.7,1.1-17.5C2151.9,1727.3,2151.8,1725.9,2151.6,1724.5z"/>
	<path class="st13" d="M2870.4,1350.5c-13.7-9.5-23-15.6-36.9-20.7c-7.4-2.6-15-4.6-22.7-5.9c-38-6.4-236.2,0.1-351.9,24.4
		c-15,3.2-25.4,10-30.5,12.8c-9.2,5-17.9,10.8-26.1,17.4c-33.8,26.8-56.3,47.5-56.3,47.5c-57.6,53.3-63,52.5-62.3,57
		c0,0,626.7-56.1,663.6-60.1C2967.6,1420.8,2904.4,1374.2,2870.4,1350.5z"/>
	<path class="st21" d="M2865.6,1360.1c-13-9.1-21.9-14.9-34.9-19.6c-6.9-2.4-14-4.3-21.2-5.5c-18.9-3.2-86.9-3.2-168,2.2
		c-71.3,4.8-135.5,12.6-180.6,22.1c-11.5,2.4-19.9,7.2-25.4,10.4c-1,0.6-2,1.1-2.8,1.5c-8.8,4.8-17.1,10.3-24.8,16.6
		c-33.1,26.2-55.6,46.9-55.8,47.1c-21.2,19.6-35.3,31.9-44.8,39.9c109.9-9.9,559.9-50.2,631.3-57.1
		C2929.3,1407.6,2905.3,1387.7,2865.6,1360.1z"/>
	<path class="st22" d="M2865.6,1360.1c-13-9.1-21.9-14.9-34.9-19.6c-6.9-2.4-14-4.3-21.2-5.5c-18.9-3.2-86.9-3.2-168,2.2
		c-71.3,4.8-135.5,12.6-180.6,22.1c-11.5,2.4-19.9,7.2-25.4,10.4c-1,0.6-2,1.1-2.8,1.5c-8.8,4.8-17.1,10.3-24.8,16.6
		c-33.1,26.2-55.6,46.9-55.8,47.1c-21.2,19.6-35.3,31.9-44.8,39.9l5.4-0.5c56.9-44.7,126.4-102.8,138-106.7
		c5.7-1.9,76.1-10.3,101.2-13.1c4.7-0.5,9,2.9,9.5,7.6c0.1,0.6,0.1,1.2,0,1.8c-2.1,20.8-6.7,67.1-8.9,88.9l57.9-5.2
		c3.6-37,4.8-95.4,9.3-100.6c5.3-6.1,108.2-6.6,149.5-6.3c5.5-0.1,10.9,1.2,15.8,3.9c3.7,2.2,6.8,5.1,9.3,8.7
		c8.1,11.5,38.6,48.3,59,72.3c40.3-3.7,70.8-6.5,85.5-7.9C2929.3,1407.6,2905.3,1387.7,2865.6,1360.1z"/>
	<path class="st14" d="M2388.6,1444.1c-1.2-6-6.7-10.2-12.8-9.7l-42.9,3.7c-5,0.4-9.2,4-10.5,8.8l-5.9,22.4
		c-1.7,6.4,2.2,13,8.6,14.6c1.1,0.3,2.2,0.4,3.3,0.4l53.5-1.6c6.6-0.2,11.8-5.8,11.6-12.4c0-0.6-0.1-1.2-0.2-1.8L2388.6,1444.1z"/>
	<path class="st13" d="M2806.2,1329.8c-7.9-1.1-15.9-1.7-23.9-1.8l81.9,99.9c13.6-1.3,26.8-3.2,37.6-4.2L2821,1332
		C2815.4,1330.2,2812.1,1330.8,2806.2,1329.8z"/>
	<path class="st23" d="M2865.6,1360.1c-13-9.1-21.9-14.9-34.9-19.6c-1.1-0.4-2.3-0.8-3.5-1.2l72.4,82c17.3-1.6,30.7-2.9,39-3.7
		C2929.3,1407.6,2905.3,1387.7,2865.6,1360.1z"/>
	<path class="st13" d="M2572.3,1336.2l-13.7,119.3c14.8-1.3,29.4-3.8,44.4-5.2l6.7-114.4C2596.7,1336.9,2584.7,1334.9,2572.3,1336.2
		z"/>
	<path class="st24" d="M2824.7,1463l41.3-2.8c2.9-0.2,5.4,2,5.6,4.9l0.8,12.3c0.2,2.9-2,5.4-4.9,5.6l-41.3,2.8
		c-2.9,0.2-5.4-2-5.6-4.9l-0.8-12.3C2819.7,1465.7,2821.9,1463.2,2824.7,1463z"/>
	<path class="st24" d="M2514.3,1487.7l41.3-2.8c2.9-0.2,5.4,2,5.6,4.9l0.8,12.3c0.2,2.9-2,5.4-4.9,5.6l-41.3,2.8
		c-2.9,0.2-5.4-2-5.6-4.9l-0.8-12.3C2509.2,1490.4,2511.4,1487.9,2514.3,1487.7z"/>
	<path class="st25" d="M2901.7,1436.3c-0.5-1.6-2.3-2.5-3.9-2c-1.6,0.5-2.5,2.2-2,3.8c1.7,5.7,3.1,11.5,4.1,17.4
		c1.8,10.2,4.1,23,1.9,36.6c-1.5,8.9-4.2,15.1-11.3,28.3c-12.1,22.5-22.7,39.1-27.7,47.1l-1.1,1.7c-14.7,23.1-27.7,47.3-38.8,72.4
		c-6.9,15.9-12.7,32.2-17.5,48.8c-0.5,1.6,0.5,3.4,2.1,3.8l0,0c1.6,0.4,3.3-0.5,3.8-2.1c4.7-16.4,10.5-32.4,17.3-48
		c11-24.8,23.8-48.7,38.3-71.5l1.1-1.7c5.1-8.1,15.8-24.8,28-47.5c7.1-13.2,10.4-20.4,12-30.2c2.4-14.7,0-28-1.9-38.7
		C2905,1448.3,2903.5,1442.2,2901.7,1436.3z"/>
	<path class="st25" d="M2590.5,1617c-2.9-40.2-4-81.2-3-118.4c0.3-10.3,0.7-20.7,1.3-31c0.1-1.7-1.3-3.1-3-3.2
		c-1.7-0.1-3.1,1.2-3.2,2.9c-0.6,10.3-1,20.8-1.3,31.2c-1,37.5,0,78.6,3,119c2.3,30.9,5.7,62.2,10.3,93.1c0.3,1.7,1.8,2.9,3.5,2.6
		l0,0c1.7-0.3,2.8-1.8,2.6-3.5C2596.2,1679,2592.7,1647.8,2590.5,1617z"/>
	<path class="st25" d="M2249.5,1698c-6.5-20.1-11.2-40.7-13.9-61.7c-5.7-43-2.1-76.2-0.1-94c1.6-14.2,3.8-28.5,6.8-42.4
		c0.4-1.7-0.7-3.3-2.4-3.7c-1.7-0.4-3.3,0.7-3.7,2.4l0,0c-3,14.2-5.3,28.6-6.9,43c-2,18.1-5.7,51.7,0.2,95.5
		c2.8,21.3,7.6,42.3,14.2,62.8c3.6,10.8,7.7,21.5,12.3,31.9c0.7,1.6,2.5,2.3,4.1,1.6l0,0c1.5-0.7,2.2-2.5,1.5-4.1
		C2257,1719.1,2253,1708.6,2249.5,1698z"/>
	<path class="st26" d="M2395.2,1347c-4.5-0.3-8.7-0.8-12.5-1.3c-39,22.7-52.4,37.3-122.6,83.5c-29.8,19.6-44.6,29.4-65.5,39.1
		c-12.7,6-25.8,10.9-39.3,14.6c20.5,2.5,34.3,5.7,44,8.6c4.2,1.3,14.8,4.8,28.1,3.1c8.1-1.1,15.9-3.7,23-7.7c2.9-1.6,5.8-3.5,13-9.5
		c7.3-5.9,14.4-12.1,21-18.8c21.2-21.2,61.7-51.4,66.9-55.3c17-12.6,33.1-26.4,50.7-38.1c8.3-5.5,19.5-12.5,18.1-16.1
		C2419,1346.1,2409.9,1347.9,2395.2,1347z"/>
	<path class="st22" d="M2382.7,1345.7c-39,22.7-52.4,37.3-122.6,83.5c-29.8,19.6-44.6,29.4-65.5,39.1c-12.7,6-25.8,10.9-39.3,14.6
		c20.5,2.5,34.3,5.7,44,8.6c4.2,1.3,14.8,4.8,28.1,3.1c2-0.3,4.1-0.6,6-1.1c-5.1-0.5-10.2-1.6-15.1-3.2c-9.6-3-23.5-6.2-44-8.6
		c13.5-3.7,26.7-8.6,39.3-14.6c20.9-9.7,35.8-19.5,65.5-39.1c67.4-44.3,82.5-59.5,118-80.8l-2-0.1
		C2390.7,1346.8,2386.6,1346.3,2382.7,1345.7z"/>
	<path class="st27" d="M1895.6,1568c-12.5,5.2-37.6,17.3-49.4,35.7c-3.5,5.4-6.1,15-7.6,21.8c-0.8,3.5,1.5,7.1,5,7.8
		c0.4,0.1,0.9,0.2,1.4,0.2l35,0.4c3.3,0,6.4-1.8,8.1-4.7c5.4-9.5,16.9-30.6,17.9-39.4c0.5-5.6,0.1-11.2-1-16.7
		c-0.7-3.7-4.3-6.2-8-5.4C1896.5,1567.7,1896,1567.8,1895.6,1568z"/>
	<path class="st13" d="M2193.6,1468.7c-12.4,5.8-25.2,10.5-38.4,14.1c20.5,2.5,34.3,5.7,44,8.6c4.2,1.3,14.8,4.8,28.1,3.1
		c8.1-1.1,15.9-3.7,23-7.7c2-1.1,3.8-2.3,5.6-3.7c-7.3-1.3-14.7-2.8-22.3-4.5C2219.7,1475.6,2206.4,1472.3,2193.6,1468.7z"/>
	<path class="st24" d="M3218.1,1458c-2.4-11.3-9.8-22.7-12.7-26.8c-0.7-1-1.9-1.3-3-0.9c-3.5,1.5-6.7,3.5-9.7,5.8
		c-5.9,4.7-10.9,10.4-15,16.7c-4.9,7.7-8,14.5-18.1,44.2c-6.3,18.5-7.8,23.9-4.8,27.2c2.8,3,7.7,2.2,16.6,1c37.2-5,44.1-1.7,49-8.6
		c2.1-3,1.8-10.6,1.2-25.7C3221,1478.8,3220.6,1469.8,3218.1,1458z"/>
	<path class="st28" d="M3154.5,1523.9c0.3-4,1.1-9.6,2.4-17.4c0.2-1,0.3-2,0.5-3C3153.1,1516.4,3152.2,1521,3154.5,1523.9z"/>
	<path class="st29" d="M3218.1,1458c-2.4-11.3-9.8-22.7-12.7-26.8c-0.7-1-1.9-1.3-3-0.9c-3.4,1.5-6.5,3.4-9.4,5.6
		c4.3,4.6,11.5,13.1,15.1,22.2c4.5,11.3,6.4,20,8.9,31.8c3.2,14.8,4.8,22.2,3.2,25.5c-1,2.3-2.8,4-5.1,5c2.2-0.6,4.1-2,5.3-3.9
		c2.1-3,1.8-10.6,1.2-25.7C3221,1478.8,3220.6,1469.8,3218.1,1458z"/>
	<path class="st12" d="M2589.1,1335.1L2589.1,1335.1c-1.7-0.1-3.2,1.2-3.3,2.9l-8.3,112.7c-0.1,1.7,1.1,3.2,2.8,3.3
		c1.7,0.1,3.2-1.2,3.3-2.9v0l8.3-112.7C2592.1,1336.7,2590.8,1335.2,2589.1,1335.1z"/>
	<path class="st12" d="M2810.6,1330.2c-1.1-1.3-3-1.5-4.3-0.4l0,0c-1.3,1.1-1.5,3-0.4,4.3l79.5,93.9c1.1,1.3,3.1,1.5,4.4,0.4
		c1.3-1.1,1.5-3.1,0.4-4.4L2810.6,1330.2z"/>
	<path class="st30" d="M2084,1723c-5.7,0.4-10,5.3-9.6,11c0.4,5.7,5.3,10,11,9.6c5.7-0.4,9.9-5.3,9.6-11
		C2094.6,1726.9,2089.7,1722.6,2084,1723L2084,1723z"/>
	<path class="st31" d="M2089.3,1724.1c2,5.3-0.7,11.3-6,13.3c-2.2,0.8-4.6,0.9-6.8,0.2c-0.5-0.2-1-0.4-1.4-0.6c2,5.3,7.9,8,13.3,6
		s8-7.9,6-13.3C2093.4,1727.3,2091.6,1725.3,2089.3,1724.1z"/>
	<path class="st30" d="M2080.2,1666c-37.2,2.5-65.3,34.6-62.8,71.8c2.5,37.2,34.6,65.3,71.8,62.8c37.2-2.5,65.3-34.6,62.8-71.8l0,0
		C2149.5,1691.6,2117.4,1663.5,2080.2,1666z M2088.5,1790.3c-31.4,2.1-58.6-21.7-60.8-53.1s21.7-58.6,53.1-60.8
		c31.4-2.1,58.6,21.7,60.8,53.1C2143.8,1760.9,2120,1788.1,2088.5,1790.3L2088.5,1790.3z"/>
	<path class="st32" d="M2136,1595c-9.5-4.6-36.9-17.3-72.2-11.3c-31.7,5.4-51.8,23-61.1,31.4c-27.4,24.6-36.9,53.5-41,66.3
		c-6.9,22.2-9.1,45.6-6.3,68.6c5.2,0,10.5,0,16,0c-0.3-2.9-0.6-5.8-0.8-8.8c-5-74.1,42.1-137.6,105.1-141.8
		c63-4.2,118.1,52.4,123.1,126.5c0.4,5.5,0.5,11.1,0.2,16.6l14-0.7c2.4-23.9-0.8-48-9.5-70.4C2198.5,1658.8,2181.3,1616.8,2136,1595
		z"/>
	<path class="st32" d="M2934.1,1549.4c-74.9,5-131.6,69.8-126.6,144.8c0.1,1.9,0.3,3.9,0.5,5.8l22.3-1.9c-0.3-2.4-0.6-4.9-0.7-7.4
		c-4.2-63,43.4-117.5,106.5-121.7c63-4.2,117.5,43.4,121.7,106.4c0.1,1,0.1,1.9,0.2,2.8l1.9-0.2l18.7-7
		C3070.9,1598.4,3007.1,1544.6,2934.1,1549.4z"/>
	<path class="st33" d="M2011.4,1774.7c-7.6-12.5-9.6-23.7-10.8-30.4c-1.8-10.1-3.5-19.7-0.5-31.3c1.5-5.6,3.9-10.9,7-15.8
		c1.4-2.2,0.8-5-1.2-6.5c-2.2-1.6-5.4-1.2-7,1.1l-0.2,0.2c-3.7,5.7-6.4,11.9-8.1,18.5c-3.6,13.7-1.6,24.8,0.3,35.6
		c1.2,6.9,3.6,19.7,12.1,33.8c2.4,3.9,5,7.6,8,11.1c1.8,2.1,4.9,2.3,7,0.5l0.2-0.2c1.9-1.8,2-4.8,0.3-6.8
		C2015.8,1781.4,2013.5,1778.1,2011.4,1774.7z"/>
	<path class="st34" d="M2022.4,1661.5c-4.7,3.5-8.8,7.7-12.2,12.4c-1.4,1.9-1,4.7,0.9,6.1c0.1,0.1,0.2,0.1,0.3,0.2
		c1.9,1.2,4.4,0.7,5.7-1.1c3-4.1,6.6-7.7,10.6-10.7c1.8-1.4,2.2-3.9,1-5.7c-1.3-2-4-2.6-6-1.3L2022.4,1661.5z"/>
	<path class="st0" d="M2079.3,1726.3c-1.8,1.2-2.5,3.2-1.6,4.6c0.9,1.3,3.1,1.4,4.8,0.2c1.8-1.2,2.5-3.2,1.6-4.6
		C2083.3,1725.2,2081.1,1725,2079.3,1726.3z"/>
	<path class="st13" d="M2918.5,1575.8c55.3-12.4,110.2,22.3,122.6,77.6c12.4,55.3-22.3,110.2-77.6,122.6
		c-55.3,12.4-110.2-22.3-122.6-77.6C2828.5,1643.1,2863.2,1588.2,2918.5,1575.8z"/>
	<path class="st16" d="M3007,1597.5c33.5,45.7,23.6,109.9-22,143.4c-38.2,28-90.5,26.2-126.7-4.2c33.5,45.7,97.7,55.6,143.4,22.1
		c45.7-33.5,55.6-97.7,22.1-143.4C3018.9,1608.8,3013.3,1602.8,3007,1597.5z"/>
	<path class="st17" d="M2875.4,1660.3c8.7-36.2,45.1-58.6,81.3-49.9c36.2,8.7,58.6,45.1,49.9,81.3c-8.7,36.2-45.1,58.6-81.3,49.9
		C2889.1,1732.9,2866.7,1696.5,2875.4,1660.3z"/>
	<path class="st18" d="M2906.1,1631.1c24.9-19.3,60.8-14.7,80.1,10.2s14.7,60.8-10.2,80.1s-60.8,14.7-80.1-10.2
		C2876.6,1686.3,2881.2,1650.4,2906.1,1631.1z"/>
	<path class="st19" d="M2940.7,1631.1c24.7-0.2,44.9,19.7,45.1,44.4c0.2,24.7-19.7,44.9-44.4,45.1c-24.7,0.2-44.9-19.7-45.1-44.4
		C2896.1,1651.5,2916,1631.3,2940.7,1631.1z"/>
	<path class="st20" d="M3007.9,1667.2l-60.7,6l25.7-56.7c-6-3.2-12.5-5.5-19.2-6.8l-14.7,61.7l-48.8-39.8
		c-4.6,5.3-8.4,11.3-11.2,17.8l55.4,29.1l-49.4,35c4,5.9,8.9,11.2,14.5,15.6l39.6-48l16.8,59l19.5-10.8l-31.5-48.9l63.2,8.6
		c1.1-5.8,1.5-11.7,1.1-17.5C3008.2,1670,3008,1668.6,3007.9,1667.2z"/>
	<path class="st30" d="M2936.5,1608.7c-37.2,2.5-65.3,34.6-62.8,71.8s34.6,65.3,71.8,62.8s65.3-34.6,62.8-71.8
		C3005.8,1634.3,2973.7,1606.2,2936.5,1608.7z M2944.8,1732.9c-31.4,2.1-58.6-21.7-60.8-53.1c-2.1-31.4,21.7-58.7,53.1-60.8
		c31.4-2.1,58.7,21.7,60.8,53.1v0C3000,1703.6,2976.2,1730.8,2944.8,1732.9L2944.8,1732.9z"/>
	<path class="st33" d="M2867.6,1717.3c-7.6-12.5-9.6-23.7-10.8-30.4c-1.8-10.1-3.5-19.7-0.5-31.3c1.5-5.6,3.8-10.9,7-15.8
		c1.5-2.3,0.8-5.4-1.6-6.8c-2.3-1.5-5.4-0.8-6.8,1.6c-3.7,5.7-6.4,11.9-8.1,18.5c-3.6,13.7-1.6,24.8,0.3,35.6
		c1.2,6.9,3.5,19.7,12.1,33.8c2.4,3.9,5,7.6,8,11.1c1.8,2.1,4.9,2.3,7,0.5l0.2-0.2c1.9-1.8,2-4.8,0.3-6.8
		C2872.1,1724.1,2869.7,1720.8,2867.6,1717.3z"/>
	<path class="st34" d="M2878.6,1604.1c-2.3,1.7-4.5,3.6-6.6,5.7c-2.1,2.1-4,4.3-5.7,6.7c-1.4,1.9-1,4.7,0.9,6.1
		c0.1,0.1,0.2,0.1,0.3,0.2c1.9,1.2,4.4,0.7,5.7-1.1c3-4.1,6.6-7.7,10.6-10.7c1.8-1.4,2.2-3.8,1-5.7c-1.3-2-4-2.6-6-1.3
		C2878.8,1604,2878.7,1604.1,2878.6,1604.1z"/>
	<path class="st35" d="M1898.8,1567.5c1.1,7.2,0.5,14.6-1.9,21.5c-4.6,13.4-14.5,20.4-20.3,24.5c-13.3,9.5-27.7,12.3-38.1,12.9
		c-0.2,3.6,2.5,6.8,6.1,7c0.1,0,0.2,0,0.4,0l35,0.3c3.3,0,6.4-1.8,8.1-4.7c5.4-9.4,16.9-30.6,17.9-39.4c0.5-5.6,0.1-11.2-1-16.7
		C1904.4,1570,1901.8,1567.8,1898.8,1567.5z"/>
	<path class="st0" d="M1882.3,1577.3c-11.5,4.8-21.5,12.6-29.1,22.6c-1.4,1.9-1,4.6,0.9,6l0.2,0.1c1.9,1.3,4.5,0.8,5.9-1
		c6.6-8.7,15.3-15.5,25.4-19.7c2.1-0.9,3.2-3.3,2.5-5.4c-0.8-2.2-3.2-3.4-5.5-2.7L1882.3,1577.3z"/>
	<path class="st26" d="M2913,1333.2c-13-7.7-32.3-18.5-55.6-27.5c-3.8,1.4-7.7,2.6-11.7,3.5c-5.5,1.3-10,1.9-10.3,3.8
		c-0.4,2.7,8,6.1,12.3,7.8c13.8,5.7,26.5,14,39.8,20.9c12.9,6.7,25.8,15.3,51.7,32.5c6.9,4.5,14,8.8,20.7,13.5
		c7.7,5.4,13.8,10.1,23.9,14.5c4,1.8,7.4,2.9,8.3,3.2c9,2.8,21-3.3,31.8-11.1c-0.4-0.1-0.7-0.1-0.9-0.2
		C3016.1,1392.2,2947.4,1353.6,2913,1333.2z"/>
	<path class="st22" d="M2913,1333.2c-13-7.7-32.3-18.5-55.6-27.5c-2.1,0.8-4,1.4-5.9,1.9c15.1,6.6,29.8,14.2,44,22.7
		c34.4,20.4,103.1,59,110,60.9c0.1,0,6,3.3,12.6,6.9c1.9-1.2,3.9-2.5,5.8-3.9c-0.4-0.1-0.7-0.1-0.9-0.2
		C3016.1,1392.2,2947.4,1353.6,2913,1333.2z"/>
	<path class="st30" d="M2940.3,1665.7c-5.7,0.4-10,5.3-9.6,11c0.4,5.7,5.3,10,11,9.6c5.7-0.4,9.9-5.3,9.6-11
		C2950.9,1669.6,2946,1665.3,2940.3,1665.7L2940.3,1665.7z"/>
	<path class="st31" d="M2945.6,1666.8c2,5.3-0.7,11.3-6,13.3c-2.2,0.8-4.6,0.9-6.8,0.2c-0.5-0.2-1-0.4-1.4-0.6c2,5.3,7.9,8,13.3,6
		c5.3-2,8-7.9,6-13.3C2949.7,1669.9,2947.9,1668,2945.6,1666.8z"/>
	<path class="st0" d="M2935.6,1668.9c-1.8,1.2-2.5,3.2-1.6,4.6c0.9,1.3,3,1.4,4.8,0.3s2.5-3.2,1.6-4.6S2937.4,1667.7,2935.6,1668.9z
		"/>
	<path class="st14" d="M2839.7,1468.4l35-2.5c1.7-0.1,3.1,1.1,3.2,2.8l0.2,3.3c0.1,1.7-1.1,3.1-2.8,3.2l-35,2.5
		c-1.7,0.1-3.1-1.1-3.2-2.8l-0.2-3.3C2836.8,1470,2838.1,1468.5,2839.7,1468.4z"/>
	<path class="st14" d="M2518.3,1498.9l35-2.3c1.7-0.1,3.1,1.1,3.2,2.8l0.2,3.3c0.1,1.7-1.1,3.1-2.8,3.2l-35,2.3
		c-1.7,0.1-3.1-1.1-3.2-2.8l-0.2-3.3C2515.4,1500.4,2516.7,1499,2518.3,1498.9z"/>
	<path class="st36" d="M3187.1,1498.2c-6.6-10.8-5.9-23.4-5.4-31.8c0.5-8.7,2.4-17.2,5.5-25.3c-3.6,3.6-6.8,7.6-9.6,11.8
		c-4.9,7.7-8,14.5-18.1,44.2c-6.3,18.5-7.8,23.9-4.8,27.2c2.8,3,7.6,2.2,16.6,1c34.4-4.6,42.8-2.2,47.8-7.3
		C3205,1515.1,3193.4,1508.4,3187.1,1498.2z"/>
	<path class="st37" d="M2805.7,1474.8c-0.3-3.6-3.4-6.2-6.9-6l-177.8,11.8c-3.6,0.2-6.3,3.3-6,6.9l0.2,3.1c0.2,3.6,3.3,6.3,6.9,6.1
		l177.8-11.9c3.6-0.3,6.3-3.3,6.1-6.9L2805.7,1474.8z"/>
	<path class="st37" d="M2485,1499.6c-0.3-3.6-3.4-6.2-6.9-6l-177.8,11.9c-3.6,0.3-6.3,3.3-6.1,6.9l0.2,3.1c0.3,3.6,3.4,6.2,6.9,6
		l177.8-11.9c3.6-0.2,6.3-3.3,6-6.9L2485,1499.6z"/>
	<path class="st15" d="M2330.7,1453.4c-1.8-4.3-2.7-9-2.6-13.7c-2.8,1.6-4.8,4.2-5.6,7.3l-5.9,22.4c-1.7,6.4,2.2,13,8.6,14.6
		c1.1,0.3,2.2,0.4,3.3,0.4l49.5-1.5c-6.6-1.9-13-4.3-19.3-7.1C2338.5,1466.8,2333.1,1459.1,2330.7,1453.4z"/>
	<polygon class="st38" points="2479.3,1369.6 2525.9,1410.4 2549.9,1409.5 2502.5,1368.1 	"/>
	<polygon class="st38" points="2448.1,1371 2494.7,1411.8 2518.7,1410.8 2471.3,1369.4 	"/>
	<polygon class="st38" points="2654.6,1349 2701.3,1389.8 2725.3,1388.8 2677.9,1347.4 	"/>
	<polygon class="st38" points="2623.4,1350.3 2670.1,1391.1 2694.1,1390.2 2646.7,1348.8 	"/>
	<path class="st12" d="M900.6,1501.4c-14.7-5.6-95-36.3-162.7,14c-54,40.1-52.1,117.2-26.4,156.6c0,0,224,20.1,229.2,21
		c28.4,4.7,75.2-12.1,84.2-26C1046.4,1633.7,988.1,1534.8,900.6,1501.4z"/>
	<path class="st12" d="M1762.9,1562.9c-14.7-5.6-95-36.3-162.7,14c-54,40.1-49.5,124.1-23.8,163.5c0,0,48.4,4,229.2,8.5
		c28.8,0.7,72.5-6.6,81.5-20.5C1908.7,1695.3,1850.4,1596.3,1762.9,1562.9z"/>
	<path class="st13" d="M1915,1706.2c-3.3,14.3,15.8,32.7,27.5,29.7c10.2-2.6,13.4-21.2,14.2-25.9c1.2-7.1,2.4-13.7-1.2-17.4
		C1947.8,1684.4,1918.6,1690.6,1915,1706.2z"/>
	<path class="st39" d="M1965.1,1677.5c0.2-18.3-2.9-58.2-31-90.8c-13.1-15.3-28.6-25.4-67-41c-44.3-18-85.4-29.6-166.4-48.1
		c-38.3-8.7-60.9-13.4-79.1-18.6c-20.7,2.4-34.6,5.5-44.4,8.5c-4.2,1.3-14.9,4.8-28.3,3c-8.1-1.2-16-3.8-23.1-7.9
		c-2.9-1.7-5.8-3.6-13-9.7c-7.4-5.9-14.4-12.3-21.1-19c-21.3-21.4-62-52.1-67.2-56c-17-12.8-33.2-26.8-50.9-38.6
		c-8.3-5.5-19.5-12.7-18.2-16.3c1.1-3,10.3-1.1,25.1-2c4.5-0.3,8.7-0.7,12.6-1.3c-1-0.6-2-1.2-3-1.8
		c-50.4-29.2-381.9-70.9-461.1-46.6c-31.4,9.6-57.3,23.9-73.5,33.5c-34.8,20.4-104.1,59-111.1,60.8c-10.2,2.7-113.5,6.5-156.9,7.9
		c-10.9,0.4-19.9,8.7-21,19.6l-10,97.5l-8.8-0.6c-8.2-0.6-15.4,5.6-16,13.8l-4.3,59.6c-0.6,8.2,4,26,54.2,39.7l128,48.4l1.9,0.2
		c0-1,0.1-1.9,0.2-2.8c4.5-63.5,59.6-111.2,123.1-106.7c63.5,4.5,111.2,59.6,106.7,123.1c-0.2,2.5-0.4,5-0.8,7.4
		c178.3,15.7,428.6,36.1,635.8,47.5c-0.2-5.6-0.1-11.2,0.3-16.7c5.3-74.6,61.1-131.5,124.5-126.9c63.5,4.5,110.6,68.7,105.3,143.3
		c-0.2,3-0.5,5.9-0.9,8.8c76.6,0.7,129.6-2.5,143.9-11.4c1.6-1,3.2-2.2,4.5-3.5c0.7-0.7,0.7-1.9,0-2.6c-0.2-0.2-0.6-0.4-0.9-0.5
		c-2-0.4-3.8-1.2-5.5-2.3c-3.4-2.2-6-5.5-7.4-9.3c-1.7-4.1-3.5-12.3,0.5-16.2c3.2-3.1,7.3-0.7,13.9-2.8c2.2-0.7,4.3-1.7,6.1-3
		c2.8-2,4.4-5.3,4.4-8.8C1965.2,1684.7,1965.1,1681,1965.1,1677.5z"/>
	<path class="st40" d="M1965.1,1677.5c0.2-18.3-2.9-58.2-31-90.8c-13.1-15.3-28.6-25.4-67-41c-44.3-18-85.4-29.6-166.4-48.1
		c-38.3-8.7-60.9-13.4-79.1-18.6c-20.7,2.4-34.6,5.5-44.4,8.5c-4.2,1.3-14.9,4.8-28.3,3c-8.1-1.2-16-3.8-23.1-7.9
		c-2.9-1.7-5.8-3.6-13-9.7c-7.4-5.9-14.4-12.3-21.1-19c-21.3-21.4-62-52.1-67.2-56c-17-12.8-33.2-26.8-50.9-38.6
		c-8.3-5.5-19.5-12.7-18.2-16.3c1.1-3,10.3-1.1,25.1-2c4.5-0.3,8.7-0.7,12.6-1.3c-1-0.6-2-1.2-3-1.8
		c-50.4-29.2-381.9-70.9-461.1-46.6c-31.4,9.6-57.3,23.9-73.5,33.5c-34.8,20.4-104.1,59-111.1,60.8c-10.2,2.7-113.5,6.5-156.9,7.9
		c-10.9,0.4-19.9,8.7-21,19.6l-10,97.5l-8.8-0.6c-8.2-0.6-15.4,5.6-16,13.8l-4.3,59.6c-0.6,7.9,3.8,24.9,49.4,38.4
		c-6.3-6.5-11.4-14.1-15-22.5c-6.8-15.9-5.7-29.4-4-49c7.5-84.7,11.6-127.2,28.5-136.5c9.4-5.2,18.6-4.8,24-4.5
		c59,2.5,118.9-7.4,177.1,2.7c159.2,27.5,440.1,27.1,725,74.2c25.6,4.2,67.7,11.6,108.5,19c14.7,2.7,68.9,12.6,139.1,27.4
		c56.9,12,78.9,17.7,106.6,28.8c12.8,5.2,68,28,79.3,60.6c5.2,14.9,5.2,31.6,5.2,31.6c0,8,1.2,33.3-2.3,39.9
		c-11.9,22.2-65.9,34.8-142.3,47.3c-0.2,2.7-0.5,5.3-0.8,8c76.6,0.7,129.6-2.5,143.9-11.4c1.6-1,3.2-2.2,4.5-3.5
		c0.7-0.7,0.7-1.9,0-2.6c-0.2-0.2-0.6-0.4-0.9-0.5c-2-0.4-3.8-1.2-5.5-2.3c-3.4-2.2-6-5.5-7.5-9.3c-1.7-4.1-3.5-12.3,0.5-16.2
		c3.2-3.1,7.3-0.7,13.9-2.8c2.2-0.7,4.3-1.7,6.1-3c2.8-2,4.4-5.3,4.4-8.8C1965.2,1684.7,1965.1,1681,1965.1,1677.5z"/>
	<circle class="st13" cx="1691.6" cy="1731.6" r="103.3"/>
	<path class="st16" d="M1701.2,1816.8c-56.9-4-99.8-53.5-95.7-110.4c1.4-19.6,8.3-38.4,20-54.2c-43.8,36.5-49.8,101.7-13.2,145.5
		c36.5,43.8,101.7,49.8,145.5,13.2c6.3-5.3,12-11.3,16.9-17.9C1754.2,1810.2,1727.8,1818.7,1701.2,1816.8z"/>
	
		<ellipse transform="matrix(0.3417 -0.9398 0.9398 0.3417 -513.6775 2729.7458)" class="st17" cx="1691.6" cy="1731.5" rx="68" ry="68"/>
	
		<ellipse transform="matrix(0.3553 -0.9348 0.9348 0.3553 -528.1247 2697.8196)" class="st18" cx="1691.7" cy="1731.8" rx="57.5" ry="57.5"/>
	<path class="st19" d="M1661.7,1697.8c18.6-16.5,47.1-14.8,63.7,3.8s14.8,47.1-3.8,63.7c-18.6,16.5-47.1,14.8-63.7-3.8
		C1641.4,1742.9,1643.1,1714.4,1661.7,1697.8z"/>
	<path class="st20" d="M1743,1687.2l-49.3,39.8l-14.5-62.2c-6.8,1.3-13.3,3.5-19.4,6.8l25.6,57.2l-61.2-6.4
		c-0.2,1.5-0.4,2.9-0.5,4.4c-0.4,5.9-0.1,11.9,1,17.7l63.7-8.4l-31.9,49.1l19.6,11l17.2-59.3l39.7,48.5c5.7-4.4,10.6-9.7,14.7-15.6
		l-49.6-35.5l56-29.1C1751.4,1698.7,1747.6,1692.6,1743,1687.2z"/>
	<path class="st13" d="M1422.7,1421c0,0-22.6-21-56.5-48.1c-8.2-6.7-16.9-12.6-26.2-17.7c-5.1-2.8-15.6-9.8-30.7-13
		c-116.4-25-316-32.4-354.3-26.1c-7.8,1.3-15.4,3.2-22.9,5.9c-14,5-23.4,11.1-37.3,20.6c-34.4,23.7-98.2,70.4-77.8,72.7
		c37.2,4.2,668.1,63.5,668.1,63.5C1485.9,1474.2,1480.5,1474.9,1422.7,1421z"/>
	<path class="st21" d="M1360.6,1382.1c-7.8-6.4-16.1-12-24.9-16.8c-0.8-0.4-1.7-1-2.8-1.6c-5.6-3.2-14-8.1-25.6-10.6
		c-45.5-9.7-110-17.9-181.8-23.1c-81.7-5.8-150.2-6.1-169.3-3c-7.3,1.2-14.4,3-21.4,5.5c-13.1,4.7-22,10.5-35.2,19.6
		c-40.1,27.7-64.4,47.6-73.8,57.7c71.9,7.3,525,49.9,635.7,60.4c-9.5-8.1-23.6-20.6-44.9-40.4
		C1416.4,1429.6,1393.9,1408.7,1360.6,1382.1z"/>
	<path class="st22" d="M1360.6,1382.1c-7.8-6.4-16.1-12-24.9-16.8c-0.8-0.4-1.7-1-2.8-1.6c-5.6-3.2-14-8.1-25.6-10.6
		c-45.5-9.7-110-17.9-181.8-23.1c-81.7-5.8-150.2-6.1-169.3-3c-7.3,1.2-14.4,3-21.4,5.5c-13.1,4.7-22,10.5-35.2,19.6
		c-40.1,27.7-64.4,47.6-73.8,57.7c14.7,1.5,45.5,4.5,86,8.4c20.7-24.2,51.5-61.1,59.8-72.6c2.5-3.5,5.6-6.5,9.4-8.7
		c4.9-2.7,10.3-4,15.9-3.9c41.6-0.1,145.2,0.8,150.6,7c4.5,5.3,5.5,64.1,8.9,101.4l58.3,5.5c-2.1-22-6.6-68.6-8.6-89.6
		c-0.5-4.8,3-9,7.8-9.4c0.6-0.1,1.2-0.1,1.8,0c25.3,3,96.2,11.7,101.9,13.7c11.7,4,81.4,62.8,138.5,108.1l5.5,0.5
		c-9.5-8.1-23.6-20.6-44.9-40.4C1416.4,1429.6,1393.9,1408.7,1360.6,1382.1z"/>
	<path class="st39" d="M1446.4,1442.2c-1.3-4.9-5.5-8.5-10.6-9l-43.2-3.9c-6.2-0.6-11.8,3.6-12.9,9.7l-4.8,24.7
		c-1.3,6.5,3,12.9,9.5,14.2c0.6,0.1,1.3,0.2,1.9,0.2l53.8,1.8c6.6,0.3,12.2-4.9,12.5-11.5c0-1.2-0.1-2.4-0.4-3.5L1446.4,1442.2z"/>
	<path class="st13" d="M944.6,1324.2l-81.8,91.8c10.9,1,24.2,3.1,37.9,4.4l82.9-100.2c-8,0.1-16,0.7-24,1.8
		C953.6,1323,950.3,1322.3,944.6,1324.2z"/>
	<path class="st23" d="M899.6,1352.2c-40.1,27.7-64.4,47.6-73.8,57.7c8.3,0.8,21.8,2.2,39.2,3.8l73.3-82.3c-1.2,0.4-2.4,0.8-3.5,1.2
		C921.8,1337.3,912.8,1343.1,899.6,1352.2z"/>
	<path class="st13" d="M1157.5,1328.9l6.2,115.3c15.1,1.4,29.8,4,44.7,5.4l-13.2-120.2C1182.7,1328.1,1170.6,1330.1,1157.5,1328.9z"
		/>
	<path class="st13" d="M892.1,1470.4l0.9-12.5c0.2-2.9,2.7-5.1,5.6-4.9l41.7,3c2.9,0.2,5.1,2.7,4.9,5.6l-0.9,12.5
		c-0.2,2.9-2.7,5.1-5.6,4.9l-41.7-3C894.1,1475.8,891.9,1473.3,892.1,1470.4z"/>
	<path class="st13" d="M1211.8,1496.7l0.9-12.5c0.2-2.9,2.7-5.1,5.6-4.9l41.7,3c2.9,0.2,5.1,2.7,4.9,5.6l-0.9,12.5
		c-0.2,2.9-2.7,5.1-5.6,4.9l-41.7-3C1213.8,1502.1,1211.6,1499.6,1211.8,1496.7z"/>
	<path class="st40" d="M948.4,1636c-11.1-25.3-24-49.7-38.7-73.1l-1.1-1.7c-5.1-8.1-15.6-24.9-27.7-47.6
		c-7.1-13.3-9.9-19.6-11.3-28.6c-2.2-13.7,0.2-26.6,2.1-36.9c1.1-5.9,2.5-11.8,4.2-17.5c0.5-1.6-0.4-3.3-2-3.9
		c-1.6-0.5-3.4,0.4-3.9,2l0,0c-1.8,6-3.3,12.1-4.4,18.2c-2,10.8-4.5,24.2-2.1,39c1.6,10,4.8,17.1,12,30.5c12.2,22.9,22.8,39.8,28,48
		l1.1,1.7c14.5,23.1,27.3,47.2,38.3,72.2c6.8,15.8,12.5,32,17.2,48.5c0.5,1.6,2.2,2.6,3.8,2.2c1.7-0.5,2.6-2.2,2.2-3.8l0,0
		C961.2,1668.5,955.3,1652,948.4,1636z"/>
	<path class="st40" d="M1191.3,1461.5c-0.1-1.7-1.5-3-3.3-3c-1.7,0.1-3,1.5-3,3.3c0.5,10.3,0.9,20.8,1.1,31.2
		c0.8,37.5-0.4,78.8-3.5,119.3c-2.4,31-6,62.4-10.8,93.3c-0.3,1.7,0.9,3.3,2.6,3.5h0c1.7,0.3,3.3-0.9,3.6-2.6l0,0
		c4.8-31.1,8.4-62.6,10.8-93.7c3.2-40.7,4.4-82.2,3.6-119.9C1192.2,1482.4,1191.8,1471.8,1191.3,1461.5z"/>
	<path class="st40" d="M1540.1,1494.5c-0.3-1.7-2-2.8-3.7-2.4l0,0c-1.7,0.3-2.7,2-2.4,3.7l0,0c2.9,14.1,5.1,28.4,6.6,42.7
		c1.9,18,5.4,51.4-0.6,94.7c-2.9,21.1-7.7,41.9-14.3,62.1c-3.6,10.7-7.7,21.2-12.3,31.5c-0.7,1.6,0,3.4,1.5,4.1
		c1.6,0.7,3.4,0,4.2-1.5c4.7-10.5,8.9-21.2,12.5-32.1c6.8-20.6,11.7-41.7,14.6-63.2c6.1-44.1,2.5-78,0.6-96.2
		C1545.3,1523.3,1543.1,1508.8,1540.1,1494.5z"/>
	<path class="st26" d="M1512.8,1424.5c-70.5-46.8-84-61.6-123.1-84.6c-3.9,0.6-8.1,1-12.6,1.3c-14.8,0.8-24-1.1-25.1,2
		c-1.3,3.6,9.9,10.8,18.2,16.3c17.7,11.8,33.9,25.8,50.9,38.6c5.2,3.9,45.9,34.5,67.2,56c6.7,6.7,13.7,13.1,21.1,19
		c7.3,6.1,10.1,8,13,9.7c7.2,4.1,15,6.7,23.1,7.9c13.4,1.8,24.1-1.7,28.3-3c9.7-3,23.7-6.1,44.4-8.5c-13.6-3.8-26.8-8.8-39.6-14.9
		C1557.6,1454.3,1542.7,1444.3,1512.8,1424.5z"/>
	<path class="st22" d="M1512.8,1424.5c-70.5-46.8-84-61.6-123.1-84.6c-3.9,0.6-8.1,1-12.6,1.3l-2,0.1c35.7,21.5,50.8,37,118.5,81.9
		c29.9,19.8,44.8,29.8,65.8,39.7c12.7,6.1,26,11.1,39.6,14.9c-20.7,2.4-34.6,5.5-44.4,8.5c-4.9,1.6-10,2.7-15.2,3.2
		c1.9,0.5,4,0.8,6.1,1.1c13.4,1.8,24.1-1.7,28.3-3c9.7-3,23.7-6.1,44.4-8.5c-13.6-3.8-26.8-8.8-39.6-14.9
		C1557.6,1454.3,1542.7,1444.3,1512.8,1424.5z"/>
	<path class="st27" d="M1932.4,1602.1c-11.8-18.5-37-30.9-49.6-36.1c-3.5-1.5-7.6,0.2-9,3.7c-0.2,0.4-0.3,0.9-0.4,1.3
		c-1.2,5.5-1.5,11.2-1.1,16.8c1,8.9,12.5,30.2,17.8,39.8c1.7,2.9,4.8,4.8,8.1,4.7l35.3-0.2c3.7,0,6.6-3,6.6-6.7
		c0-0.4-0.1-0.9-0.1-1.3C1938.5,1617.3,1935.9,1607.6,1932.4,1602.1z"/>
	<path class="st13" d="M1539.2,1474.5c-7.6,1.6-15.1,3.1-22.5,4.4c1.8,1.4,3.7,2.6,5.7,3.8c7.2,4.1,15,6.7,23.1,7.9
		c13.4,1.8,24.1-1.7,28.3-3c9.7-3,23.7-6.1,44.4-8.5c-13.2-3.7-26.1-8.5-38.6-14.4C1566.7,1468.1,1553.2,1471.5,1539.2,1474.5z"/>
	<path class="st41" d="M591.9,1444.3c-4.1-6.4-9.1-12.1-15-16.9c-3-2.4-6.2-4.4-9.7-5.9c-1.1-0.5-2.3-0.1-3,0.8
		c-2.9,4.1-10.5,15.6-12.9,27c-2.6,11.9-3,20.9-3.6,33c-0.7,15.2-1,22.9,1.1,25.9c4.9,7,11.8,3.8,49.3,8.9c9,1.2,13.9,2.1,16.7-0.9
		c3-3.3,1.5-8.7-4.7-27.4C599.9,1458.8,596.8,1452,591.9,1444.3z"/>
	<path class="st28" d="M612.6,1498.4c1.2,7.9,2,13.5,2.3,17.5c2.3-2.9,1.4-7.5-2.8-20.5C612.3,1496.3,612.4,1497.3,612.6,1498.4z"/>
	<path class="st42" d="M564.1,1422.3c-2.9,4.1-10.5,15.6-12.9,27c-2.6,11.9-3,20.9-3.6,33c-0.7,15.2-1,22.9,1.1,25.9
		c1.3,1.9,3.2,3.3,5.4,3.9c-2.3-1-4.1-2.7-5.1-5c-1.6-3.3,0-10.8,3.3-25.7c2.6-11.8,4.6-20.6,9.1-32c3.7-9.1,10.9-17.7,15.3-22.3
		c-2.9-2.3-6.1-4.2-9.5-5.7C566.1,1421,564.8,1421.3,564.1,1422.3z"/>
	<path class="st12" d="M1178.2,1328.2L1178.2,1328.2c-1.7,0.1-3,1.6-2.9,3.3l7.9,113.6c0.1,1.7,1.6,3,3.3,2.9c1.7-0.1,3-1.6,2.9-3.3
		l0,0l-7.9-113.6C1181.4,1329.4,1179.9,1328.1,1178.2,1328.2z"/>
	<path class="st12" d="M959.6,1322c-1.3-1.1-3.3-1-4.4,0.3l-80.5,94.2c-1.1,1.3-1,3.3,0.4,4.4c1.3,1.1,3.3,1,4.4-0.3l0,0l80.5-94.2
		C961,1325.1,960.9,1323.1,959.6,1322z"/>
	<path class="st30" d="M1692.4,1721.3c-5.7-0.4-10.7,3.9-11.1,9.6c-0.4,5.7,3.9,10.7,9.6,11.1c5.7,0.4,10.7-3.9,11.1-9.6l0,0
		C1702.4,1726.7,1698.1,1721.7,1692.4,1721.3L1692.4,1721.3z"/>
	<path class="st31" d="M1686.8,1729.2c-0.7-2.2-0.6-4.7,0.2-6.9c-5.1,2.5-7.2,8.8-4.7,13.9c2.5,5.1,8.8,7.2,13.9,4.7
		c2.3-1.2,4.1-3.1,5.1-5.6c-0.5,0.2-1,0.4-1.5,0.6C1694.4,1737.7,1688.5,1734.7,1686.8,1729.2L1686.8,1729.2z"/>
	<path class="st30" d="M1696.4,1663.8c-37.5-2.7-70,25.5-72.7,63c-2.7,37.5,25.5,70,63,72.7c37.5,2.7,70-25.5,72.7-63l0,0
		C1762.1,1699,1733.9,1666.5,1696.4,1663.8z M1748.9,1735.7c-2.3,31.7-29.8,55.5-61.4,53.3c-31.7-2.3-55.5-29.8-53.3-61.4
		c2.3-31.7,29.8-55.5,61.4-53.3l0,0C1727.4,1676.5,1751.2,1704,1748.9,1735.7L1748.9,1735.7L1748.9,1735.7z"/>
	<path class="st43" d="M1774.8,1612.8c-9.3-8.4-29.4-26.2-61.4-31.8c-35.5-6.2-63.2,6.5-72.8,11c-45.8,21.8-63.3,64-68.3,76.7
		c-8.8,22.5-12.2,46.8-9.9,70.9l14.1,0.8c-0.2-5.6-0.1-11.2,0.3-16.7c5.3-74.6,61.1-131.5,124.5-126.9
		c63.4,4.5,110.6,68.7,105.3,143.3c-0.2,3-0.5,5.9-0.9,8.8c5.5,0,10.8,0.1,16.1,0.1c2.9-23.2,0.9-46.8-6-69.2
		C1811.7,1666.9,1802.3,1637.8,1774.8,1612.8z"/>
	<path class="st43" d="M836.8,1542.7c-73.6-5.3-138.1,48.7-146,122l18.8,7.1l1.9,0.2c0-1,0.1-1.9,0.2-2.8
		c4.5-63.5,59.6-111.2,123.1-106.7c63.5,4.5,111.2,59.6,106.7,123.1c-0.2,2.5-0.4,5-0.8,7.4l22.4,2c0.2-1.9,0.4-3.9,0.5-5.8
		C969.1,1613.6,912.3,1548.1,836.8,1542.7z"/>
	<path class="st33" d="M1778.4,1690.4c-1.6-2.2-4.8-2.7-7-1c-2,1.5-2.6,4.1-1.5,6.3c3.1,4.9,5.5,10.3,6.9,15.9
		c3,11.7,1.3,21.3-0.6,31.5c-1.2,6.7-3.3,18-11,30.5c-2.1,3.5-4.5,6.7-7.2,9.8c-1.7,2-1.6,5,0.3,6.9c2,1.9,5.2,1.8,7.1-0.2l0.1-0.1
		c3-3.5,5.7-7.2,8.2-11.2c8.7-14.1,11-27,12.3-34c2-10.8,4-22,0.5-35.8C1784.8,1702.4,1782.1,1696.2,1778.4,1690.4z"/>
	<path class="st34" d="M1761.3,1665.3c-2-2.1-4.3-4-6.6-5.8c-1.9-1.5-4.7-1.1-6.1,0.8c-0.1,0.1-0.2,0.2-0.2,0.3
		c-1.2,1.9-0.8,4.4,1,5.8c4.1,3.1,7.7,6.7,10.6,10.8c1.3,1.8,3.8,2.3,5.8,1.1c2.1-1.3,2.7-4,1.4-6c-0.1-0.1-0.1-0.2-0.2-0.3
		C1765.3,1669.6,1763.4,1667.4,1761.3,1665.3z"/>
	<path class="st0" d="M1697.1,1724.5c-1.8-1.2-4-1.1-4.9,0.2c-0.9,1.3-0.2,3.4,1.6,4.6s4,1.1,4.9-0.2S1698.9,1725.8,1697.1,1724.5z"
		/>
	<circle class="st13" cx="829.3" cy="1670.1" r="103.3"/>
	<path class="st16" d="M838.9,1755.3c-56.9-4.1-99.8-53.5-95.7-110.4c1.4-19.6,8.3-38.4,20-54.1c-43.8,36.5-49.8,101.7-13.2,145.5
		c36.5,43.8,101.7,49.8,145.5,13.2c6.3-5.3,12-11.3,16.9-17.9C891.9,1748.7,865.6,1757.2,838.9,1755.3z"/>
	
		<ellipse transform="matrix(0.9413 -0.3376 0.3376 0.9413 -515.126 378.0204)" class="st17" cx="829.4" cy="1670.1" rx="68" ry="68"/>
	<path class="st18" d="M808.2,1616.6c29.5-11.7,62.9,2.8,74.6,32.3c11.7,29.5-2.8,62.9-32.3,74.6c-29.5,11.7-62.9-2.8-74.6-32.3
		C764.2,1661.7,778.7,1628.3,808.2,1616.6z"/>
	<path class="st19" d="M797.4,1638.2c17.6-17.6,46.2-17.6,63.8,0c17.6,17.6,17.6,46.2,0,63.8s-46.2,17.6-63.8,0
		C779.8,1684.4,779.8,1655.8,797.4,1638.2z"/>
	<path class="st20" d="M880.8,1625.7l-49.3,39.8l-14.5-62.2c-6.8,1.3-13.3,3.5-19.4,6.8l25.6,57.2l-61.2-6.4
		c-0.2,1.5-0.4,2.9-0.5,4.4c-0.4,5.9-0.1,11.9,1.1,17.7l63.7-8.4l-31.9,49.1l19.6,11l17.2-59.3l39.7,48.5
		c5.7-4.4,10.6-9.7,14.7-15.6l-49.6-35.5l56-29.1C889.2,1637.1,885.4,1631,880.8,1625.7z"/>
	<path class="st30" d="M834.2,1602.3c-37.5-2.7-70,25.5-72.7,63c-2.7,37.5,25.5,70,63,72.7c37.5,2.7,70-25.5,72.7-63l0,0
		C899.8,1637.5,871.6,1605,834.2,1602.3z M886.7,1674.2c-2.3,31.7-29.8,55.5-61.4,53.3s-55.5-29.8-53.3-61.4
		c2.3-31.7,29.8-55.5,61.4-53.3l0,0C865.1,1615,888.9,1642.5,886.7,1674.2L886.7,1674.2z"/>
	<path class="st33" d="M916.2,1628.9c-1.7-2.2-4.8-2.6-7-1c-1.9,1.5-2.5,4.1-1.5,6.2c3.1,4.9,5.5,10.3,6.9,15.9
		c3,11.7,1.3,21.3-0.6,31.5c-1.2,6.7-3.3,18-11,30.5c-2.1,3.5-4.5,6.7-7.1,9.8c-1.7,2-1.6,5,0.3,6.9c2,1.9,5.2,1.8,7.1-0.2l0.1-0.1
		c3-3.5,5.7-7.2,8.2-11.2c8.7-14.1,11-27,12.3-34c2-10.8,4-22,0.5-35.8C922.6,1640.9,919.8,1634.6,916.2,1628.9z"/>
	<path class="st34" d="M899,1603.8c-2-2.1-4.2-4-6.6-5.8c-1.9-1.5-4.7-1.1-6.1,0.8c-0.1,0.1-0.1,0.2-0.2,0.3c-1.2,1.9-0.8,4.4,1,5.8
		c4.1,3.1,7.7,6.7,10.6,10.8c1.3,1.8,3.8,2.3,5.8,1.1c2.1-1.3,2.7-4,1.4-6c-0.1-0.1-0.1-0.2-0.2-0.3
		C903,1608.1,901.1,1605.9,899,1603.8z"/>
	<path class="st35" d="M1901.7,1611.9c-5.8-4.2-15.7-11.3-20.3-24.8c-2.3-7-3-14.4-1.8-21.7c-3.1,0.2-5.7,2.5-6.3,5.6
		c-1.2,5.5-1.5,11.2-1.1,16.8c1,8.9,12.5,30.2,17.8,39.8c1.7,2.9,4.8,4.8,8.1,4.7l35.3-0.2c3.7,0,6.6-3,6.6-6.7c0-0.1,0-0.3,0-0.4
		C1929.6,1624.4,1915.1,1621.5,1901.7,1611.9z"/>
	<path class="st0" d="M1909,1582.5c-4-2.8-8.3-5.2-12.8-7.1c-2.2-0.9-4.8,0.2-5.7,2.4s0.2,4.8,2.4,5.7c10.1,4.3,18.9,11.2,25.5,20
		c1.4,1.8,4,2.3,5.9,1c2-1.3,2.6-4,1.3-6l-0.1-0.2C1920.8,1592.1,1915.3,1586.8,1909,1582.5z"/>
	<path class="st26" d="M919.9,1301.1c-4-1-7.9-2.2-11.8-3.6c-23.5,9-42.9,19.7-56.1,27.4c-34.8,20.4-104.1,59-111.1,60.8
		c-0.3,0.1-0.6,0.1-0.9,0.2c10.8,7.9,22.9,14,32,11.3c0.9-0.3,4.3-1.4,8.3-3.2c10.2-4.4,16.3-9.1,24.1-14.5
		c6.8-4.7,14-8.9,20.9-13.5c26.1-17.2,39.2-25.8,52.3-32.5c13.4-6.9,26.2-15.1,40.2-20.8c4.4-1.8,12.8-5.1,12.4-7.9
		C929.9,1303,925.4,1302.4,919.9,1301.1z"/>
	<path class="st22" d="M852,1324.9c-34.8,20.4-104.1,59-111.1,60.8c-0.3,0.1-0.6,0.1-0.9,0.2c1.9,1.4,3.8,2.7,5.8,3.9
		c6.7-3.6,12.6-6.9,12.7-6.9c7-1.9,76.3-40.5,111.1-60.8c14.3-8.5,29.1-16.1,44.4-22.7c-1.9-0.6-3.8-1.2-5.9-2
		C884.6,1306.4,865.1,1317.2,852,1324.9z"/>
	<path class="st30" d="M830.1,1659.7c-5.7-0.4-10.7,3.9-11.1,9.6c-0.4,5.7,3.9,10.7,9.6,11.1c5.7,0.4,10.7-3.9,11.1-9.6l0,0
		C840.1,1665.1,835.8,1660.2,830.1,1659.7z"/>
	<path class="st31" d="M824.5,1667.7c-0.7-2.2-0.7-4.7,0.2-6.9c-5.1,2.5-7.2,8.8-4.7,13.9c2.5,5.1,8.8,7.2,13.9,4.7
		c2.3-1.2,4.1-3.1,5.1-5.6c-0.5,0.2-1,0.4-1.5,0.6C832.1,1676.1,826.3,1673.1,824.5,1667.7L824.5,1667.7z"/>
	<path class="st0" d="M834.8,1663c-1.8-1.2-4-1.1-4.9,0.2s-0.2,3.4,1.6,4.6s4,1.1,4.9-0.2C837.3,1666.3,836.6,1664.2,834.8,1663z"/>
	<path class="st39" d="M897.6,1470.9l0.2-3.3c0.1-1.7,1.6-2.9,3.2-2.8l35.3,2.5c1.7,0.1,2.9,1.6,2.8,3.2l-0.2,3.3
		c-0.1,1.7-1.6,2.9-3.2,2.8l-35.3-2.5C898.7,1474,897.5,1472.5,897.6,1470.9z"/>
	<path class="st39" d="M1217.1,1497.1l0.2-3.3c0.1-1.7,1.6-2.9,3.2-2.8l35.3,2.5c1.7,0.1,2.9,1.6,2.8,3.2l-0.2,3.3
		c-0.1,1.7-1.6,2.9-3.2,2.8l-35.3-2.5C1218.3,1500.2,1217,1498.8,1217.1,1497.1z"/>
	<path class="st44" d="M591.9,1444.3c-2.7-4.3-6-8.4-9.6-12c3.2,8.2,5,16.8,5.5,25.5c0.4,8.5,1.1,21.2-5.6,32
		c-6.3,10.3-18,17-32.4,19.7c5,5.1,13.5,2.7,48.1,7.5c9,1.2,13.9,2.2,16.7-0.9c3-3.3,1.5-8.7-4.7-27.4
		C599.9,1458.8,596.8,1452,591.9,1444.3z"/>
	<path class="st43" d="M1149.1,1474.7l-179.1-12.8c-3.6-0.3-6.7,2.4-7,6l-0.2,3.2c-0.3,3.6,2.4,6.7,6,7l179.2,12.8
		c3.6,0.2,6.7-2.4,6.9-6l0.2-3.2C1155.3,1478.1,1152.7,1475,1149.1,1474.7L1149.1,1474.7z"/>
	<path class="st43" d="M1475.6,1501.2l-179.1-12.8c-3.6-0.3-6.7,2.4-7,6l-0.2,3.2c-0.3,3.6,2.4,6.7,6,7l179.2,12.8
		c3.6,0.2,6.7-2.4,6.9-6l0.2-3.2C1481.8,1504.6,1479.1,1501.5,1475.6,1501.2z"/>
	<path class="st40" d="M1446.4,1442.2c-0.8-3.1-2.8-5.8-5.6-7.4c0.1,4.7-0.9,9.4-2.7,13.8c-2.5,5.8-7.9,13.5-28.2,22.5
		c-6.3,2.8-12.8,5.2-19.5,7.1l49.9,1.7c6.6,0.3,12.2-4.9,12.5-11.5c0-1.2-0.1-2.4-0.4-3.5L1446.4,1442.2z"/>
	<polygon class="st38" points="1217.4,1403.3 1241.6,1404.4 1288.7,1363.5 1265.3,1361.8 	"/>
	<polygon class="st38" points="1248.8,1404.9 1273,1405.9 1320.1,1365 1296.7,1363.4 	"/>
	<polygon class="st38" points="1040.9,1381.8 1065,1382.8 1112.2,1341.9 1088.7,1340.3 	"/>
	<polygon class="st38" points="1072.3,1383.3 1096.4,1384.3 1143.6,1343.5 1120.2,1341.8 	"/>
	<path class="st13" d="M1727.4,1481.5c-3.2-1.5-6.8-2-10.3-1.4c-12.8,2.2-48.4,6.8-95.5-1c-20.7,2.4-34.6,5.5-44.4,8.5
		c-1.3,0.4-3.2,1-5.7,1.6c-0.1,0.3-0.2,0.7-0.1,1.1c0.5,4.4,16.7,4.3,53.4,9.9c14.7,2.2,34.7,6.4,74.7,14.8
		c21.6,4.5,50.6,10.6,88.5,19.8c27,6.6,40.6,9.9,58.4,15c34.8,10,59.6,19.2,75.1,24.7c-11.5-9.3-27.2-17.7-54.4-28.7
		C1828.8,1530.1,1748.4,1491.6,1727.4,1481.5z"/>
	<path class="st45" d="M1727.4,1481.5c-3.2-1.5-6.8-2-10.3-1.4c-12.8,2.2-48.4,6.8-95.5-1c-20.7,2.4-34.6,5.5-44.4,8.5
		c-1.3,0.4-3.2,1-5.7,1.6c-0.1,0.3-0.2,0.7-0.1,1.1c0.1,1.2,1.4,2,3.7,2.7l1.5-0.5c9.7-3,23.7-6.1,44.4-8.5
		c47.1,7.8,82.7,3.2,95.5,1c3.5-0.6,7.1-0.1,10.3,1.4c21,10.1,101.4,48.6,139.8,64.2c16.5,6.7,28.8,12.4,38.5,18
		c6.4,2.2,11.9,4.2,16.5,5.9c-11.5-9.3-27.2-17.7-54.4-28.7C1828.8,1530.1,1748.4,1491.6,1727.4,1481.5z"/>
	<path class="st40" d="M2008,1352.9c-15-16.8-57.8-13.2-74.4-7.8c-132.9,42.9-307.2,115.9-307.2,115.9l-69.1,30l30.1,4.6
		c0,0,245.5-101.5,364-135.9c10.7-3.1,24-6.4,39.4-2.6c18.7,4.7,29.9,17.2,32.8,14.5C2026.1,1369.3,2016.2,1362.1,2008,1352.9z"/>
	<path class="st10" d="M2337.2,863.1c-3.1-18.2-20.4-30.4-38.5-27.3c-16,2.8-27.8,16.7-27.7,32.9c0,0.4,0,0.8,0,1.2
		c-3.6-0.8-7.2-1.2-10.9-1.2c-24.4,0-44.2,17.4-44.2,38.9c0,17.9,13.7,32.9,32.3,37.5c-9.8,15.6-5.1,36.2,10.5,46s36.2,5.1,46-10.5
		c0.4-0.7,0.9-1.4,1.3-2.2c8.8,8.2,20.5,12.7,32.6,12.6c24.4,0,44.2-17.4,44.2-39c0-7.7-2.6-15.2-7.3-21.4
		c20.9-12.3,29.2-37.1,18.5-55.6C2383.4,856.9,2358.2,851.6,2337.2,863.1z"/>
	<path class="st11" d="M1457.6,894.2c16.9-23.1,14.3-53.9-6-68.9c-20.1-14.9-49.9-8.8-67.2,13.5c-11.9-18.2-36.3-23.3-54.5-11.5
		c-16.1,10.5-22.2,31-14.6,48.6c0.2,0.4,0.4,0.8,0.6,1.3c-4.2,0.8-8.4,2.1-12.3,3.8c-26.4,11.4-39.7,39.6-29.6,62.9
		c8.4,19.3,30.2,29.3,52.5,25.5c-3.2,21.5,11.7,41.5,33.2,44.7c21.5,3.2,41.5-11.7,44.7-33.2c0.1-0.8,0.2-1.6,0.3-2.4
		c12.4,4.6,27.2,4.4,41.1-1.6c26.5-11.4,39.8-39.6,29.7-62.9C1471.8,905.6,1465.6,898.7,1457.6,894.2z"/>
	<path class="st46" d="M1765.4,1090c0-21.3-19.7-38.5-44-38.5c-5.8,0-11.5,1-16.9,2.9c-4.4-22.8-21.5-39.7-41.9-39.7
		c-23.8,0-43.1,23-43.1,51.4c0,0.5,0,1.1,0,1.6c-4.8-1.1-9.7-1.6-14.6-1.6c-32.5,0-58.8,23-58.8,51.4c0,26.9,23.7,49,53.9,51.2
		c-0.3,1.7-0.4,3.4-0.4,5.1c0,21.3,19.7,38.5,44,38.5c18.5,0,34.3-9.9,40.8-24c7.8,3.2,16.2,4.8,24.7,4.8c32.5,0,58.8-23,58.8-51.4
		c-0.1-10.7-3.8-21.1-10.6-29.5C1762.5,1106,1765.3,1098.1,1765.4,1090z"/>
	<polygon class="st13" points="1837.8,1629.8 1707.4,1597.4 1753.2,1615.7 1829.8,1649.3 1887.2,1656.2 1879.2,1674.6 1963.7,1667 
		1963.7,1654.8 1844.1,1618.8 	"/>
	<polygon class="st13" points="1837.8,1629.8 1707.4,1597.4 1753.2,1615.7 1829.8,1649.3 1887.2,1656.2 1879.2,1674.6 1963.7,1667 
		1963.7,1654.8 1844.1,1618.8 	"/>
	<polygon class="st47" points="1837.8,1629.8 1707.4,1597.4 1725.5,1604.6 1840,1633 1846.3,1622.1 1963.7,1657.4 1963.7,1654.8 
		1844.1,1618.8 	"/>
	<polygon class="st39" points="1938.9,1393 1880.4,1437.8 1889.5,1496.5 1988.4,1408 1922.9,1437.8 	"/>
	<polygon class="st15" points="2471.7,1113.5 2398.7,1167.9 2410.1,1239 2533.3,1131.6 2451.7,1167.9 	"/>
	<polygon class="st48" points="1844.7,1343.6 1934.3,1277 1875.7,1273.5 	"/>
	<polygon class="st48" points="2071.6,1244.4 2084.2,1331.7 2141.7,1339.8 2103.1,1310.2 	"/>
	<polygon class="st15" points="2013.7,1431.9 2118.3,1406.6 2062,1391.7 	"/>
	<polygon class="st15" points="2181.4,1252.8 2202,1318.3 2256,1366.6 2250.3,1303.4 	"/>
	<polygon class="st40" points="1384.2,1113.5 1408.2,1205.6 1470.9,1273.5 1464.2,1184.6 	"/>
	<path class="st49" d="M2004.1,1538.4l-93.4,28.2l11,7.8l165.3-18.1l125.5-49.7c0,0-28.7,0.3-116.3,17.5
		C2077.9,1527.7,2004.1,1538.4,2004.1,1538.4z"/>
	<path class="st50" d="M2004.1,1537.6l-93.4,28.2l4.7,3.4l91-27.5c0,0,73.9-10.7,92.1-14.3c53.3-10.5,90.7-16.7,111.9-20l18.1-7.1
		c0,0-44.7,5.8-132.3,23C2077.9,1526.9,2004.1,1537.6,2004.1,1537.6z"/>
	<polygon class="st51" points="2339.4,1394.1 2339.3,1394.2 2310.4,1418.2 2311,1412.3 2311.6,1406.8 2306.5,1409.7 2266.4,1432.9 
		2248.7,1434.4 2231.6,1445.5 2268.1,1442 2269.4,1441.9 2270.3,1441.3 2305,1417.7 2304.9,1423.8 2304.7,1430 2309,1425.8 
		2340.4,1395.6 2379.2,1379 2339.6,1394.1 	"/>
	<polygon class="st52" points="2339.4,1394.1 2339.3,1394.2 2310.4,1418.2 2311,1412.3 2311.6,1406.8 2306.5,1409.7 2266.4,1432.9 
		2248.7,1434.4 2240.5,1439.7 2246,1437.8 2263.8,1436.3 2303.9,1413.1 2308.9,1410.2 2308.4,1415.7 2307.8,1421.7 2336.7,1397.7 
		2336.8,1397.5 2339.1,1395.6 2379.2,1379 2339.6,1394.1 	"/>
	<path class="st53" d="M1405,1598.7c-6.2-10.8-20-14.6-30.8-8.4c-3.5,2-6.4,4.9-8.4,8.4l-116,202.9c-6.2,10.8-2.4,24.7,8.4,30.8
		c3.4,2,7.3,3,11.2,3h232.1c12.5,0,22.6-10.1,22.6-22.6c0-3.9-1-7.8-3-11.2L1405,1598.7z"/>
	<path class="st54" d="M1405,1598.7c-4.4-7.8-13-12.2-21.8-11.3c13.7,28,25.3,50.7,33.9,67.1c15.4,29.5,26.4,49.2,31.2,79.7
		c2.9,18.8,5.4,36.2-3.5,52c-12.5,22.1-40,28.4-64.1,32.9c-39.4,7.4-79.2,12.4-119.2,15c2.5,0.9,5.2,1.4,7.9,1.4h232.1
		c12.5,0,22.6-10.1,22.6-22.6c0-3.9-1-7.8-3-11.2L1405,1598.7z"/>
	<path class="st55" d="M1345.8,1633.7l-59.5,104.1c35,5.6,67.8-18.3,73.4-53.2C1362.5,1666.4,1357.5,1647.9,1345.8,1633.7z"/>
	<path class="st56" d="M1385.3,1772.6c-7.6-0.1-13.8,6-13.9,13.7l0,0.2c0,4.4,1.4,7.8,4.2,10.2c2.7,2.4,6.2,3.7,9.9,3.7
		c3.6,0,7.1-1.3,9.7-3.7c2.8-2.5,4.2-5.9,4.2-10.2c0.1-3.7-1.4-7.2-4.1-9.8C1392.7,1774,1389.1,1772.5,1385.3,1772.6z"/>
	<path class="st56" d="M1386.1,1659.9c-4-0.2-7.9,1.4-10.6,4.3c-2.7,2.9-4,6.9-4,12c0,3.8,0.3,10,0.8,18.6l3,44.4
		c0.6,5.8,1.5,10,2.8,12.8s3.6,4.2,7,4.2c3,0.1,5.8-1.6,7-4.4c1.4-2.9,2.3-7.1,2.8-12.5l4-45.7c0.4-4.1,0.6-8.3,0.6-12.4
		c0-6.9-0.9-12.2-2.7-15.9C1395,1661.7,1391.4,1659.9,1386.1,1659.9z"/>
	<path class="st53" d="M2496.9,1570.7c-16.4,0-31.2,10.1-37.1,25.4l-85.7,220.3h245.7l-85.7-220.3
		C2528,1580.8,2513.3,1570.7,2496.9,1570.7"/>
	<path class="st53" d="M2496.9,1570.7c-16.4,0-31.2,10.1-37.1,25.4l-85.7,220.3h245.7l-85.7-220.3
		C2528,1580.8,2513.3,1570.7,2496.9,1570.7"/>
	<g>
		<defs>
			<polyline id="SVGID_1_" points="2462.7,1666.9 2445.2,1666.9 2424.9,1724.3 2448.3,1724.3 2462.7,1666.9 			"/>
		</defs>
		<clipPath id="SVGID_2_">
			<use xlink:href="#SVGID_1_"  style="overflow:visible;"/>
		</clipPath>
		<rect x="2424.9" y="1666.9" class="st57" width="37.8" height="57.3"/>
	</g>
	<polyline class="st0" points="2409.9,1724.3 2387.6,1781.6 2606.2,1781.6 2583.9,1724.3 2409.9,1724.3 	"/>
	<polyline class="st0" points="2454.5,1609.6 2432.2,1666.9 2561.6,1666.9 2539.3,1609.6 2454.5,1609.6 	"/>
	<path class="st58" d="M2494,1570.8C2494,1570.8,2494,1570.8,2494,1570.8C2494,1570.8,2494,1570.8,2494,1570.8 M2494.2,1570.8
		c0,0-0.1,0-0.1,0C2494.1,1570.8,2494.2,1570.8,2494.2,1570.8 M2494.4,1570.7c0,0-0.1,0-0.1,0
		C2494.3,1570.8,2494.3,1570.8,2494.4,1570.7 M2494.6,1570.7c-0.1,0-0.1,0-0.2,0C2494.5,1570.7,2494.5,1570.7,2494.6,1570.7
		 M2496.7,1570.7c-0.7,0-1.4,0-2.1,0.1C2495.3,1570.7,2496,1570.7,2496.7,1570.7 M2496.9,1570.7c-0.1,0-0.1,0-0.2,0
		C2496.8,1570.7,2496.8,1570.7,2496.9,1570.7c16.4,0,31.2,10.1,37.1,25.4l5.3,13.5h0l-5.3-13.5
		C2528,1580.8,2513.3,1570.7,2496.9,1570.7"/>
	<path class="st59" d="M2496.9,1570.7c-0.1,0-0.1,0-0.2,0h0c-0.7,0-1.4,0-2.1,0.1c0,0,0,0,0,0c-0.1,0-0.1,0-0.2,0c0,0,0,0,0,0
		c0,0-0.1,0-0.1,0c0,0,0,0-0.1,0c0,0-0.1,0-0.1,0c0,0-0.1,0-0.1,0c0,0,0,0,0,0c-6.3,0.5-12.4,2.4-17.8,5.7
		c12.4,3.2,22.6,12.2,27.2,24.1l3.5,9h32.3l-5.3-13.5C2528,1580.8,2513.3,1570.7,2496.9,1570.7"/>
	<path class="st60" d="M2581.4,1717.7C2581.3,1717.7,2581.3,1717.7,2581.4,1717.7l2.5,6.6h0l13.1,33.8l0,0L2581.4,1717.7"/>
	<polyline class="st61" points="2597,1758 2606.2,1781.6 2619.7,1816.3 2619.8,1816.3 2597.1,1758 2597,1758 	"/>
	<path class="st58" d="M2561.6,1666.9L2561.6,1666.9l19.7,50.8c0,0,0,0,0,0L2561.6,1666.9"/>
	<path class="st59" d="M2606.2,1781.6h-57.3c-9.6,20.4-32.6,26.1-58.1,34.7h129L2606.2,1781.6 M2561.6,1666.9h-32.3l14.1,36.3
		c2.4,7.6,4.3,14.6,5.9,21.1h34.7l-2.6-6.6L2561.6,1666.9"/>
	<path class="st62" d="M2583.9,1724.3L2583.9,1724.3h-34.7c6.4,27.2,5.5,45-0.4,57.4h57.3l-9.2-23.6L2583.9,1724.3"/>
	<polyline class="st62" points="2539.3,1609.6 2539.3,1609.6 2506.9,1609.6 2529.2,1666.9 2561.6,1666.9 2561.6,1666.9 
		2539.3,1609.6 	"/>
	<path class="st63" d="M2373.3,1800.2h247.2c11.4,0,20.7,9.3,20.7,20.7v0c0,11.4-9.3,20.7-20.7,20.7h-247.2
		c-11.4,0-20.7-9.3-20.7-20.7v0C2352.6,1809.5,2361.9,1800.2,2373.3,1800.2z"/>
	<path class="st53" d="M2620.5,1800.2h-2.5c1.6,3,2.5,6.4,2.5,9.8c0,11.4-9.3,20.7-20.7,20.7h0h-244.7c3.6,6.7,10.6,10.9,18.2,10.9
		h247.2c11.4,0,20.7-9.3,20.7-20.7v0C2641.2,1809.5,2631.9,1800.2,2620.5,1800.2L2620.5,1800.2z"/>
	<path class="st64" d="M3251.1,1753.6c-4.8-8.6-28.2-6.5-32.3,3.4c-1.5,3.6,0.8,5.1,1,14.2c0.3,13.1-4.2,16.6-1.6,20.7
		c2.7,4.4,8.2,0.5,28.4,2.5c4.3,0.4,6.9,0.9,8.2-0.9c2.6-3.5-4-10-4.9-22C3249.1,1760.9,3253.5,1757.9,3251.1,1753.6z"/>
	<path class="st64" d="M3162.2,1752.3c-4.4-4.7-12.1,4-25.8,3.4c-1.6-0.1-4.5-0.3-5.9,1.6s-0.3,4.4-0.4,7.9c-0.1,6.7-4.5,8.9-5.1,13
		c-1.8,11,23,30.1,32.1,23.6c2.1-1.5,3.2-6.2,5.3-15.5c0.4-1.9,1.1-7.9,2.4-19.8c0.4-2.6,0.3-5.3-0.2-7.9
		C3164.1,1756.2,3163.6,1753.8,3162.2,1752.3z"/>
	<path class="st65" d="M3162.9,1405c-13.6-17.4-42.7-57.2-56.6-40.2c-11.4,13.9-6.9,100.3-4.7,162.9c1.3,38.5-2.4,52.8,1.7,91
		c2.3,21.4,6.1,42.1,6.1,42.1c4.2,23.1,5.5,22.4,7.8,37.4c6,37.7,7.9,57.6,8.7,64.1c1.3,10.9,35.7,10,39.8,0
		c2.1-5.1,3.1-26-2.6-66.1c-0.4-2.9-6-42.9-7-76.6c-0.8-28.4,2.1-50.5,7.8-94.8C3171.9,1463.7,3172.3,1417.2,3162.9,1405z"/>
	<path class="st66" d="M3144.8,1385.1c-0.8-3.3-1.8-5.7-2.9-7C3135.8,1370.9,3138.6,1376,3144.8,1385.1z"/>
	<path class="st66" d="M3162.9,1405c-5.3-6.8-10.6-14.2-14.6-19.9c6.1,25.2,2.8,102.3-2.3,156.7c-4.2,44.5-6.2,66.8-4.5,95.1
		c2.1,33.6,9.2,73.4,9.7,76.2c4.7,26.4,6.2,44.5,6.1,55.2c4.1-1.3,7.3-3.3,8.4-5.9c2.1-5.1,3.1-26-2.6-66.1c-0.4-2.9-6-42.9-7-76.6
		c-0.8-28.4,2.1-50.5,7.8-94.8C3171.9,1463.7,3172.3,1417.2,3162.9,1405z"/>
	<path class="st65" d="M3238.5,1613.9c-1.5-11.3-2.2-29.9-3.5-67c-1.3-36.4-6.4-72.7-5.2-109.1c0.5-16.3-5.5-52-10.5-57
		c-13.8-13.9-56.9-18.9-69.9,14.3c-6.2,15.8,4.7,67.5,14.2,135.5c4,28.1,5.7,51.2,15.7,83.3c1.8,5.7,2.3,6.7,5.2,16.3
		c4.9,15.8,12.8,41.1,17.4,64.2c9.3,46.4,9.6,54.6,12.1,66c2,9.1,32.1,8.4,37.7,1.4c2.8-3.5,6.6-32.1,0.7-74.1
		C3247.4,1652.3,3242.8,1646,3238.5,1613.9z"/>
	<path class="st66" d="M3238.5,1613.9c-1.5-11.3-2.2-29.9-3.5-67c-1.3-36.4-6.4-72.7-5.2-109.1c0.5-16.3-4.9-62.7-9.8-67.7
		c-10.5-10.6-26.6-1.1-18.4,7.2c5,5,14.6,54.8,14.1,71.1c-1.2,36.4,3.9,72.8,5.2,109.2c1.3,37.1,2,55.7,3.5,67
		c4.2,32.1,8.9,38.4,13.9,73.7c4.6,32.7,3.3,57.3,1.2,68.2c5.5-0.8,10.3-2.4,12.2-4.8c2.8-3.5,6.6-32.2,0.7-74.1
		C3247.4,1652.3,3242.8,1646,3238.5,1613.9z"/>
	<path class="st67" d="M3162.9,1782c-1.7-0.5-2.3,1.5-6.5,3.3c-1.4,0.6-5.7,2.4-10,1.4c-1.6-0.4-2.8-1-10.9-8.1
		c-6.3-5.6-6.6-6.2-7.8-6.2c-4.2-0.3-5.6,5.5-13.9,13.4c-4.9,4.7-8,7.7-13.1,9.1c-2.8,0.8-7.4,1-16.5,1.4c-4.4,0.2-6.4,0.2-8.3,1.9
		c-2.8,2.6-4,8-2.2,11c1.5,2.5,4.7,2.8,6.1,2.9c18,1.4,27,2.1,30.9,1.9c5.2-0.3,27-1.1,44.8,0c2.6,0.2,8.6,0.6,11.3-3.3
		c0.8-1.2,1.3-2.9,0.9-9.6C3167,1791.8,3166.4,1782.9,3162.9,1782z"/>
	<path class="st67" d="M3252.9,1779.6c-1.8-0.5-2.6,1.1-5.2,0.5c-3.2-0.7-3.3-3.4-6.5-5.3c-3.6-2-8.8-1.8-11.3,1
		c-1.8,2-0.9,4-2.6,5.3c-2.9,2.1-6.8-2.6-9.6-1c-2.2,1.3-1.4,5.2-2.2,12.9c-1.2,12.1-4.4,15.7-2.2,19.2c1.2,1.8,3,2.3,10.9,2.9
		c22.3,1.7,22.2-0.9,32.6,1c4.1,0.7,6.3-0.9,7.5-2.4c1.8-2.3-1.6-4.3-4.8-14.8C3256.1,1788,3256.5,1780.6,3252.9,1779.6z"/>
	<path class="st68" d="M3162.9,1782c-1.7-0.5-2.3,1.5-6.5,3.3c-0.9,0.4-1.8,0.7-2.7,1c-8.2,9.8-16.1,13.9-20.8,15.9
		c-9.3,3.9-20.1,4.1-41.9,4.7c-7.3,0.2-13.4,0.2-18.1,0.1c0.1,0.8,0.4,1.6,0.8,2.3c1.5,2.5,4.7,2.8,6.1,2.9c18,1.4,27,2.1,30.9,1.9
		c5.2-0.3,27-1.1,44.8,0c2.6,0.2,8.6,0.6,11.3-3.3c0.8-1.2,1.3-2.9,0.9-9.6C3167,1791.8,3166.4,1782.9,3162.9,1782z"/>
	<path class="st69" d="M3166.6,1810.2h-92.1c0,0,2.6,6.6,4.2,6.6h86.2C3166.6,1816.9,3168.2,1810.2,3166.6,1810.2z"/>
	<path class="st68" d="M3252.9,1779.6c-0.2,0-0.3-0.1-0.5-0.1c0.8,3.6,0.9,7.4,0.2,11c-0.4,2.1-1.5,7.1-5.3,11
		c-2.4,2.4-5.5,4-8.8,4.7c-8.2,2.1-18.4,1.8-25.7,1.2c-0.4,2-0.3,3.3,0.5,4.7c1.2,1.8,3,2.3,10.9,2.9c22.3,1.7,22.2-0.9,32.6,1
		c4.1,0.7,6.3-0.9,7.5-2.4c1.8-2.3-1.6-4.3-4.8-14.8C3256.1,1788,3256.5,1780.6,3252.9,1779.6z"/>
	<path class="st69" d="M3264.3,1810.2h-51.9c-1.6,0-0.4,6.6,1.2,6.6h49.8C3265,1816.9,3265.9,1810.2,3264.3,1810.2z"/>
	<path class="st70" d="M3209.5,1154.2c-4.9-0.4-7.4-0.6-10.1-1.6c-7-2.7-12.7,5.5-18.4-0.2c-3.3-3.4,3.6-35.5-5.7-38.5
		c-8.4-2.7-34.5,8.3-40.7,16.9c-6.5,9.1,4.2,22.6-3.2,28.1c-1.5,1.1-7.6,1.9-12.1,2.8c-8.5,1.7-12,0.1-14.2,2.9
		c-1.6,2-0.9,4.1-1.1,9.9c-0.3,7.1-1.6,10.5-2.6,16.1c-2.1,11.2,1.2,29,3.1,44.6c1.2,9.8,3.4,10.9,7,32.2
		c2.7,15.9-4.6,29.9-3.8,32.6c9,29.4,97,15.6,107.1-1.6c3.9-6.7,0.8-10.5,6.2-40.1c1.9-10.7,7.6-22.5,9.3-28.6
		c2-7.4,2.3-7.5,5.2-17.3c1.8-5.9,1.2-1.9,5.3-37.6C3240.9,1172.3,3218.6,1154.9,3209.5,1154.2z"/>
	<path class="st71" d="M3209.5,1154.2c-4.9-0.4-7.4-0.6-10.1-1.6c-7-2.7-12.7,5.5-18.4-0.2c-3.3-3.4,3.6-35.5-5.7-38.5
		c-2.4-0.5-4.9-0.5-7.3,0c2,19.3,2.3,28.2,2,32.3c-0.3,2.8,0,5.6,0.9,8.3c0.9,2.6,2.4,5,4.3,7c2.7,2.9,35.7,29,60.6,49.3
		c1.2-3.9,1.1-4.1,4.8-36C3240.9,1172.3,3218.6,1154.9,3209.5,1154.2z"/>
	<path class="st72" d="M3212.5,1153.3c-3.3,4,5,20.4,8,26c1.5,2.8,1.5,2.2,8.3,13.4c2.1,3.4,4.4,6.6,6.5,10c1.8,2.8,2.4,4,3.9,5.1
		c2.2,1.5,5,2,7.6,1.3c1.3-0.3-4.1-5.3-2.9-7.5c1.6-2.8,4.6,2.3,4.9-3.2c0.5-9.9-1.7-22.2-5.6-27.7
		C3234.1,1157.6,3215.8,1149.2,3212.5,1153.3z"/>
	<path class="st73" d="M3134.7,1130.7c-2.9,4-0.4,16.8-0.5,21.6c0.8,3.9,4.3,11.9,11.8,13.2c21.2,3.6,26.7-21.7,30.3-31.5
		c-3.8-3.2-6.7-6.8-12.3-8.6C3155.5,1122.6,3140.9,1122,3134.7,1130.7z"/>
	<path class="st70" d="M3113.2,1161.5c-11.1-0.5-22.8,2-26.8,3.5c-9,3.4-9.9,5.2-17,7.1c-7.1,1.9-9.5,1.1-13.7,1.9
		c-17.4,3.4-34.3,30.6-29.2,41.1c1.7,3.5,19.1,6.9,35.9,4.7c8.3-1,16.4-2.7,24.5-4.9c4.7-1.2,9.2-3,13.5-5.2
		c2.6-1.4,5.1-2.9,7.5-4.7C3119.5,1196.3,3122.3,1161.9,3113.2,1161.5z"/>
	<path class="st71" d="M3060.2,1173.6c-9.9,11.9-7.4,23.3-6.5,24.5c1.5,1.9,7.6-10.5,15.3-20.2c1.8-2.2,3.3-4.7,4.7-7.2
		c-1.4,0.6-2.8,1-4.3,1.4C3066.5,1173,3063.4,1173.5,3060.2,1173.6z"/>
	<path class="st74" d="M3184.2,1071.1c-2.3-10.2-4-17.8-10-23.6c-4-3.8-9-6.3-14.5-7.1c-4.3-0.8-32.2-2.5-40.2,15.4
		c-2.7,5.7-4.6,11.7-5.7,17.8c-1.2,8-0.6,14.9,0.5,18.4c0.9,3,1.8,4.9,1.8,4.9c0.7,1.3,1.2,2.7,1.7,4.1c0.4,1.7,0.6,3.5,0.5,5.2
		c0.1,4.7,0.1,7.1,0.8,9.3c0.3,1.1,1.3,2.9,3.2,6.6c2,3.6,2.8,4.7,3.8,7.4c0.8,2.2,0.4,2,1.2,4.1c0.8,2.1,1.2,2.6,3.5,7.1
		c0.6,1.2,1.2,2.4,2,4.1c1.3,2.6,1.4,3.1,2,4.1c0.8,1.4,1.8,2.7,3,3.8c1.6,1.3,3.5,2.2,5.5,2.5c6,1.2,11.8-1.5,12.7-1.9
		c12.7-6,21.3-25,22.7-28c5.2-11.5,7.8-23.9,7.7-36.5C3186.4,1083,3185.6,1077,3184.2,1071.1z"/>
	<path class="st75" d="M3184.2,1071.1c-2.3-10.2-4-17.8-10-23.6c-4-3.8-9-6.3-14.5-7.1c-4.3-0.8-32.2-2.5-40.2,15.4
		c-2.7,5.7-4.6,11.7-5.7,17.8c-1.2,8-0.6,14.9,0.5,18.4c0.9,3,1.8,4.9,1.8,4.9c0.7,1.3,1.2,2.7,1.7,4.1c0.4,1.7,0.6,3.5,0.5,5.2
		c0.1,4.7,0.1,7.1,0.8,9.3c0.3,1.1,1.3,2.9,3.2,6.6c0.6,1.2,1.2,2.1,1.6,2.9c-0.5-2.1-0.8-4-1.1-5.7c-0.7-4.4-1-6.7-0.9-10.1
		c0.3-6.2,2-7.2,2.4-12.9c0.3-4.7-0.8-4.5-1.3-12c-0.3-4.9-0.6-9.7,1.1-15.1c1-3.3,2.1-7,5.4-9.1c0.3-0.2,4.8-3,8.9-0.7
		c3.2,1.8,4.1,5.7,4.8,8.4c0.7,3,0.5,4.9,0.4,9.6c-0.2,4.1,0,8.2,0.4,12.2c1.1,7.1,4.7,12,8.3,17c4.7,6.4,6.2,5.8,9.8,11.7
		c2.4,3.9,5,8.1,5,13.9c0.1,6.1-2.8,10.6-4.6,13.4c-2,3.1-4.4,5.8-7.3,8l0.6-0.3c12.7-6,21.3-25,22.7-28c5.2-11.4,7.8-23.9,7.8-36.4
		C3186.4,1083,3185.6,1077,3184.2,1071.1z"/>
	<path class="st76" d="M3176.9,1047.7c0,0-18.4-29.5-50.9-6.3c-20.8,14.9-21.6,18.2-23.7,30.1c-2.1,12,16.5,16.6,30.7,10.5
		c4.9-2.1,23.9-12.1,26.4-9.2c2.1,2.5,2.4,3.3,2.3,11.7c-0.2,13.5,3.1,10,6.3,5.2c2-3,8-0.6,9.9,0.6c4.4,3.1,0,28.8,2.2,28.7
		c5-0.2,12-27.2,12-27.2C3202.8,1056.1,3176.9,1047.7,3176.9,1047.7z"/>
	<path class="st76" d="M3151.2,1093.9c-3.8,0.5-7.5,1.7-10.7,3.8c-0.4,0.2-0.7,0.5-1.1,0.7c-0.9,0.7-1.1,1.9-0.5,2.9
		c0.5,0.8,1.6,1,2.4,0.5l0.1,0c0.3-0.2,0.6-0.4,0.9-0.6c2.8-1.8,6-2.9,9.4-3.3c1-0.2,1.7-1.1,1.6-2.1c0-1-0.8-1.9-1.9-1.9
		L3151.2,1093.9z"/>
	<path class="st76" d="M3128,1099.5c-1.2-0.5-2.4-0.9-3.7-1.1c-1.1-0.2-2.2-0.3-3.4-0.3c-1.1,0.1-1.9,1.1-1.8,2.2l0,0
		c0.1,1,0.8,1.7,1.8,1.8c0.9,0,1.8,0.1,2.7,0.2c1,0.2,2,0.5,3,0.9c0.9,0.3,1.9-0.1,2.2-1l0,0C3129.4,1101.2,3129,1100,3128,1099.5z"
		/>
	<path class="st70" d="M3127.1,1038.5c-3.9,1.5-7.5,3.6-10.7,6.3c-4.4,3.8-8.3,8.3-11.5,13.2c-0.7,1-1.3,2.1-1.8,3.3
		c-1,2.6-0.9,4.3-1.3,6.9c-0.3,1.8-0.5,2.5-2,6.9c-3.2,9.6-2.5,8.3-4.5,14c-2.1,6-3.2,9.1-4.7,11.8c-1.6,2.8-3.6,5.3-5.7,7.7
		c-9,10.5-12,13.7-12,13.7c-6.9,7.4-9,9.5-18.7,19.8c-2.8,3-4.7,5-8.5,9.1c-11.7,12.5-13,14.1-14.5,16.2c-3.6,5-6.6,10.4-8.7,16.2
		c-1.6,4.4-3.1,8.7-2.7,14.5c0.2,4.1,1.3,8.2,3.2,11.8c1.7,3.2,3.6,6.7,6.7,7.7c1.2,0.4,4.8,1.1,13.2-6.6
		c6.9-6.4,11.6-13.5,15.7-21.1c5.4-10,4.5-10.7,10.7-23.3c3.8-7.9,8.2-15.5,13-22.8c7.5-11.1,7.5-8.4,13.7-18.1
		c2.2-3.4,4.6-7.6,9.5-11c3.1-2.1,3.5-1.4,6.2-3.6c1.1-0.9,8.1-6.4,8.7-14.5c0.2-2.5-0.3-3.5-1-7.1c-0.2-1.1-2-11-0.5-20
		c1.5-9.2,6-16,9-20.3c4.5-6.7,8.6-10,7.7-11.5C3134.9,1035.7,3128.9,1037.8,3127.1,1038.5z"/>
	<path class="st74" d="M3127.1,1038.5c-3.9,1.5-7.5,3.6-10.7,6.3c-4.4,3.8-8.3,8.3-11.5,13.2c-0.7,1-1.3,2.1-1.8,3.3
		c-1,2.6-0.9,4.3-1.3,6.9c-0.3,1.8-0.5,2.5-2,6.9c-3.2,9.6-2.5,8.3-4.5,14c-2.1,6-3.2,9.1-4.7,11.8c-1.6,2.8-3.6,5.3-5.7,7.7
		c-9,10.5-12,13.7-12,13.7c-6.9,7.4-9,9.5-18.7,19.8c-2.8,3-4.7,5-8.5,9.1c-11.7,12.5-13,14.1-14.5,16.2c-3.6,5-6.6,10.4-8.7,16.2
		c-1.6,4.4-3.1,8.7-2.7,14.5c0.2,4.1,1.3,8.2,3.2,11.8c0.4,0.8,0.9,1.6,1.4,2.4c-0.7-3.4-0.7-6.9-0.2-10.3c0.7-4.2,2.3-7.3,4.1-10.7
		c4.2-8.1,8.6-12.4,13.5-17.7c1.5-1.6,7.6-9.5,19.8-25.1c9.7-12.4,10.4-13.6,14.5-18.3c4.6-5.2,6.6-6.9,11.4-12.8
		c4.6-5.6,7.4-9.1,10.3-14.4c2.5-4.6,4-8.3,6.5-14.8c1.7-4.5,3.1-8.6,4.7-13.4c3.1-9.3,2.7-9,3.9-11.5c1.4-3.2,4.1-9.2,9.2-14
		c2.2-2,4.6-3.9,7.1-5.5c1.1-0.7,1.8-1,2.9-1.8c1.2-0.8,2.3-1.8,3.3-2.8c0.4-0.7,0.5-1.3,0.3-1.7
		C3134.9,1035.7,3128.9,1037.8,3127.1,1038.5z"/>
	<path class="st70" d="M3123.3,1043.3c-3.6,2.5-6.8,5.6-9.6,8.9c-2.4,3-4.4,6.2-6,9.6l0.9,0.5c1.6-3.4,3.6-6.5,5.9-9.4
		c2.7-3.3,5.9-6.3,9.4-8.7c3.7-2.7,7.8-4.8,12.2-6.3l-0.3-1.1C3131.3,1038.4,3127.1,1040.6,3123.3,1043.3z"/>
	<path class="st77" d="M3145.4,1133.9c-2.9-1.4-6.2-1.7-9.2-0.8c-1.6,0.5-3.1,1.4-4.5,2.4c-0.4,0.3-0.5,0.9-0.2,1.4
		c0.2,0.4,0.7,0.5,1.1,0.2l0.1,0c1.2-1,2.5-1.7,3.9-2.1c2.7-0.8,5.6-0.6,8.1,0.7c0.4,0.2,0.9,0,1.1-0.4l0,0
		C3146.1,1134.7,3145.9,1134.1,3145.4,1133.9z"/>
	<path class="st78" d="M3150.1,1103.5c-1,1.2-2.3,2-3.7,2.4c-1.2,0.3-2.4,0.2-3.5-0.1c-0.6-0.2-1.3,0.2-1.5,0.8
		c-0.1,0.4-0.1,0.8,0,1.1c0.1,0.3,0.4,0.6,0.8,0.7c1.5,0.5,3.2,0.6,4.7,0.2c2-0.5,3.7-1.6,5-3.2c0.2-0.3,0.4-0.7,0.3-1
		c0-0.4-0.2-0.8-0.5-1C3151.2,1103,3150.5,1103.1,3150.1,1103.5z"/>
	<path class="st78" d="M3126.1,1107.6c-1.1,0.4-2.3,0.4-3.5,0.1c-0.3-0.1-0.7-0.2-1-0.3c-0.6-0.2-1.3,0-1.6,0.7
		c-0.1,0.4-0.1,0.8,0,1.1c0.1,0.4,0.4,0.6,0.7,0.8c0.4,0.2,0.9,0.3,1.3,0.4c0.7,0.2,1.3,0.2,2,0.2c0.9,0,1.8-0.1,2.7-0.4
		c0.4-0.1,0.6-0.4,0.8-0.7c0.1-0.4,0.1-0.8,0-1.1C3127.4,1107.8,3126.8,1107.5,3126.1,1107.6z"/>
	<path class="st70" d="M3139.8,1126c-0.1-0.4-0.5-0.6-0.9-0.5l0,0c-3.3,0.9-5.6,0.8-6.5-0.3c-0.8-0.9-0.6-2.5-0.1-5.5
		c0.1-1.1,0.3-2.3,0.5-3.8c0.3-3.1,0.5-6.2,0.6-9.3c0-0.4-0.3-0.8-0.8-0.8l0,0c-0.4,0-0.8,0.4-0.8,0.8c0,3-0.2,6.1-0.5,9.1
		c-0.2,1.4-0.3,2.7-0.5,3.8c-0.5,3.4-0.7,5.2,0.4,6.7c1.2,1.5,3.3,1.8,6.3,1.3c0.6-0.1,1.2-0.3,1.8-0.4
		C3139.6,1126.9,3139.9,1126.4,3139.8,1126L3139.8,1126L3139.8,1126z"/>
	<path class="st0" d="M3070.3,1169.7c-0.8,1.5-1.2,6.4-2,16.3c-0.3,4-0.6,7.7-0.7,12.7c-0.1,10.4-0.3,20.5,3.5,22
		c0.8,0.4,18.6-0.7,28.3-3.8c12.3-4,7.4-5.5,10.2-7.9c7.9-6.9,9.9-16.8,12.2-28c2-9.9,4.6-19.5,4.8-20.6
		C3127.1,1157,3073.8,1163.2,3070.3,1169.7z"/>
	<path class="st72" d="M3101.9,1208.7c-3.4-2.5-9.4,2.8-26.7,4.8c-2.3,0.3-5.1,0.9-7,1c0.1,6.7,3,11.6,5.6,12.7
		c0.8,0.3,17.2-0.8,26.9-3.9c0.9-0.3,1.7-0.6,2.4-0.8C3104.6,1214.1,3103.8,1210.2,3101.9,1208.7z"/>
	<path class="st0" d="M3209.5,1154.2c-4.9-0.4-7.4-0.6-10.1-1.6s-5.1-0.5-7.5,0.3c-4.7,14.1-13,24.9-23.7,29.8
		c-1.8,0.8-20.4,9-32.2-1.6c-4.7-4.4-7.9-10.2-9-16.6c-0.2-1.4-0.4-2.8-0.5-4.2c-2.3,0.5-5,0.9-7.3,1.3c-8.5,1.7-12,0.1-14.2,2.9
		c-1.6,2-0.9,4.1-1.1,9.9c-0.3,7.1-4.4,11.1-5.4,16.7c-2.1,11.2-3.3,73.5-3.3,89.3c0,26.8-1.3,98.9-2.2,119.9
		c-0.2,2.6,1.5,4.9,4,5.5c17.8,3.6,84.5,5.5,124.7-4.6c3.7-1.1,6-4.6,5.6-8.4c-1.7-25-7.4-112.7-2.8-138c1.9-10.7,4-19.1,5.6-25.1
		c2-7.4,2.3-7.5,5.2-17.3c1.8-5.9,1.2-1.9,5.3-37.6C3240.9,1172.3,3218.6,1154.9,3209.5,1154.2z"/>
	<path class="st72" d="M3230.3,1182.5c-9.4-0.1-17.5,33.7-20,44.5c-1.3,5.3-4.7,20.8-6.5,64.1c-0.4,9.1,4.7,105.6,4.5,112.7
		c8.2-1.3,13-2,15.7-3.8c4.6-3.1,3.4-7.4,3.4-7.4c-0.4-5.1-8.2-108.4-2.8-138c1.9-10.7,4-19.1,5.6-25.1c2-7.4,2.3-7.5,5.2-17.3
		c1.4-4.7,1.3-3.1,3.3-20.3C3234.9,1183.6,3231.9,1182.5,3230.3,1182.5z"/>
	<path class="st79" d="M3191.9,1152.8c-4.7,14.1-13,24.9-23.7,29.8c-1.8,0.8-20.4,9-32.2-1.6c-4.7-4.4-7.9-10.2-9-16.6
		c-0.2-1.6-0.4-3.2-0.4-4.8c-0.2-0.9-4.4-0.8-6.3-0.4c0.6,5.5,3,16,9.4,23c4.8,5.3,11.2,8.7,18.3,9.9c12.4,2.3,22.2-3.2,26.1-5.4
		c11-6.2,19.4-18.7,24.4-34.6C3196.2,1151.8,3194,1152,3191.9,1152.8z"/>
	<path class="st74" d="M3238.9,1172.4c-4-4.9-5.5-5.2-11.5-11.3c-5.7-5.7-5.7-6.7-15-17.6c-13.1-15.4-14.7-15.3-20.1-22.9
		c-3.4-4.8-6.1-9.5-10.4-13.7c-1-0.9-1.9-2-2.6-3.1c-1.7-2.9-2.8-6.2-3-9.6c-0.3-2.9-0.2-5.9,0.4-8.8c0.6-4,1.3-4.8,2.2-8.8
		c1.1-4.7,1.6-9.6,1.4-14.4c-0.1-3.8-0.6-7.7-1.5-11.4c-1-4.2-2-6.1-3.1-7.5c-0.8-1-2.8-3.5-5.2-3.4c-1.2,0-1.3,0.6-2.3,0.4
		c-1.8-0.4-1.9-2.8-4.1-5.1c-1.4-1.4-3.1-2.3-5-2.6c-1.8-0.3-3.7-0.1-5.5,0.5c-1.2,0.5-1.1,0.7-1.9,0.8c-1.9,0.2-2.4-1.5-5-2.3
		c-1.4-0.5-2.9-0.5-4.3,0.1c-0.8,0.4-1.5,1.1-1.9,1.9c-0.3,1.1-0.3,2.2,0,3.3c0.4,1.9,1.1,2.6,0.8,3c-0.3,0.4-1.2-0.3-2.9-0.3
		c-1,0-2,0.3-2.7,1c-1.3,1.6,0.6,5.2,1.2,6.9c0.8,1.9,1.6,2.7,4,6c2.6,3.6,3.8,5.4,4.5,6.9c1.8,4.2,1,8.2,0.8,10.7
		c-1.1,9.1,1.2,22.3,7,30.5c4.3,6.1,12.5,15.4,12.5,15.4s0.7,2.1,2.2,6.3c2.6,7.3,5.1,12.6,7.2,17.3c9.2,19.9,23.2,42,23.2,42
		c8.9,14,15.1,22.1,23.5,29.6c6.7,6,11.9,9.1,17,7.7c5.1-1.4,7.8-6.5,8.7-8.2c4.3-8,2.5-16.7,1.7-20
		C3247.5,1182.9,3242.9,1177.3,3238.9,1172.4z"/>
	<path class="st70" d="M3156,1035.7c-0.4-0.1-0.7-0.4-0.9-0.7c-0.1-0.5-0.1-0.9,0.1-1.4c0.3-0.7,1.4-1,2.7-1.1
		c-1.5-0.1-2.9,0.2-4.3,0.7c-1.2,0.5-1.2,0.7-1.9,0.8c-0.4,0-0.8,0-1.2-0.1c1.1,1,2.2,2,3.2,3.1c2.3,2.3,4.2,4.9,5.7,7.7
		c2,3.8,2.9,10.8,3.8,11.3c0.5,0.3,1,0.3,1.5,0c0.5-0.5,0.8-1.1,0.8-1.8c0.7-5.5-2.7-11.1-2.7-11.1
		C3160.9,1039.8,3157.5,1036.1,3156,1035.7z"/>
	<path class="st70" d="M3141.9,1035.9c-0.5-0.5-0.8-1.1-0.8-1.8c0-0.5,0.1-1.1,0.4-1.5c-0.3,0.3-0.6,0.7-0.8,1.1
		c-0.3,1.1-0.3,2.2,0,3.3c0.3,1.7,0.9,2.5,0.8,2.9c0.8,0.7,1.7,1.6,2.6,2.5c2,2.1,3.6,4.4,5,6.9c2.7,5.1,2.9,9.2,4.3,9.2
		c0.7,0,1.4-1,1.4-1.3C3156,1047.1,3145.1,1039.9,3141.9,1035.9z"/>
	<path class="st70" d="M3171.1,1041.7c0.2-0.4,0.7-0.6,1.1-0.6c0.5-0.1,0.9-0.1,1.4,0c-0.8-0.7-1.9-1.1-3-1.1
		c-1.1,0-1.3,0.5-2.1,0.4c0.3,0.4,0.6,1,0.9,1.5c1.6,2.7,2.5,5.8,2.8,9c0.1,2.6-0.5,5.3,0.5,7.7c0.4,1.1,0.8,1.2,1,1.2
		c0.6,0,1.1-1,1.3-1.4c1.1-2.3,0.6-8.4-1.3-12.6C3172.7,1043.8,3170.7,1042.6,3171.1,1041.7z"/>
	<path class="st70" d="M3143.6,1049.9c-1.5-2.1-3.2-4.2-4.9-6.1c-0.9-0.9-2-1.8-1.8-3c0-0.3,0.1-0.6,0.3-0.9c-0.5,0.1-1,0.4-1.3,0.8
		c-1.3,1.6,0.6,5.2,1.2,6.9c0.8,1.9,1.6,2.7,4,6c2.6,3.6,3.9,5.4,4.5,6.9c0.5,1.2,0.9,2.5,1,3.9c0.2-1.1,0.4-2.1,0.5-3.2
		c0.3-1.9,0.2-3.7-0.2-5.6C3146.5,1053.8,3145.5,1052.5,3143.6,1049.9z"/>
	<path class="st70" d="M3236.7,1216.5c-2.6-0.4-4.5-1.9-7.5-4.7c-10.5-10-17.2-20.3-21.5-27c-7.3-11.2-10.9-16.8-14.4-22
		c0,0-7.1-10.6-15-24.7c-1.4-2.4-2.6-4.9-3.6-7.4c-1.4-3.6-2.4-7.3-3.2-11.1c-0.8-4.5-0.5-5.7-1.7-8.2c-1-1.9-2.3-3.7-3.9-5.1
		c-2.5-2.5-3.9-2.8-6.2-4.5c-3.2-2.6-5.7-5.8-7.5-9.5c-0.8-1.4-7.2-13.6-5.7-24.4c-2.4,12.5,1.1,25.9,6.6,33.8
		c4.3,6.1,12.5,15.4,12.5,15.4s0.7,2.1,2.2,6.3c2.6,7.3,5.1,12.6,7.2,17.3c9.2,19.9,23.2,42,23.2,42c8.9,14,15.1,22.1,23.5,29.6
		c6.7,6,11.9,9.1,17,7.7c4-1.1,6.5-4.5,7.9-6.8C3243.8,1215.5,3240.3,1217.1,3236.7,1216.5z"/>
	<path class="st14" d="M3087.4,1022.5c-1-1.6-2-3.3-3-5s-2-3.3-3-4.9l-3.1-4.9l-3.1-4.8c-1-1.6-2.1-3.2-3.1-4.8l-3.2-4.8
		c-1-1.6-2.1-3.2-3.2-4.8l-3.2-4.7l-3.2-4.7l-3.3-4.7l-3.3-4.7l-3.3-4.6l-3.4-4.6l-3.4-4.6l-7.3-10l-3.8,12.4l-1.7,5.6l-1.7,5.6
		l-1.7,5.6c-0.6,1.9-1.1,3.7-1.6,5.6c-0.5,1.9-1.1,3.7-1.6,5.6c-0.3,1.2-0.7,2.4-1,3.5c-1.4-2.1-2.8-4.1-4.2-6.2l-3-4.4l-3.1-4.4
		c-2.1-2.9-4.1-5.8-6.2-8.7c-1-1.4-2.1-2.9-3.1-4.3c-1-1.4-2.1-2.9-3.2-4.3c-1.1-1.4-2.1-2.9-3.2-4.3l-3.2-4.2l-3.3-4.2l-3.3-4.2
		c-1.1-1.4-2.2-2.8-3.4-4.1c-1.1-1.4-2.3-2.7-3.5-4c0.7,1.7,1.4,3.4,2.2,5c0.8,1.6,1.5,3.3,2.3,5l2.3,4.9l2.4,4.9l2.4,4.9
		c0.8,1.6,1.6,3.2,2.4,4.8c0.8,1.6,1.6,3.2,2.5,4.8s1.7,3.2,2.5,4.8c1.7,3.2,3.4,6.4,5.1,9.5l2.6,4.7l2.6,4.7
		c1.8,3.1,3.5,6.2,5.3,9.3l2.7,4.6l2.7,4.6l7,12l4.4-13.8l1.8-5.5l1.7-5.6c0.6-1.9,1.1-3.7,1.7-5.6c0.6-1.9,1.1-3.7,1.7-5.6
		c0.5-1.9,1.1-3.7,1.6-5.6l1.4-4.8l2.9,3.6l3.6,4.4l3.6,4.3l3.7,4.3l3.7,4.3c1.2,1.4,2.5,2.8,3.7,4.3l3.8,4.2
		c1.3,1.4,2.5,2.8,3.8,4.2l3.8,4.2l3.9,4.1c1.3,1.4,2.6,2.7,3.9,4.1c1.3,1.4,2.6,2.7,4,4c1.4,1.3,2.7,2.7,4,4
		c1.3,1.3,2.7,2.6,4.1,3.9c-0.9-1.7-1.9-3.4-2.8-5.1C3089.3,1025.9,3088.4,1024.2,3087.4,1022.5z"/>
	<path class="st14" d="M3310.5,933.6l-4.8,1.7l-4.8,1.8l-4.7,1.8c-1.6,0.6-3.1,1.3-4.7,1.9s-3.2,1.3-4.7,1.9l-4.7,2
		c-3.1,1.3-6.2,2.6-9.3,4l-4.7,2l-4.6,2.1c-3.1,1.4-6.2,2.8-9.2,4.3l-4.6,2.2l-4.6,2.2l-11.9,5.7l11.7,6.9l4.7,2.8l4.7,2.8
		c1.6,0.9,3.1,1.8,4.7,2.7c1.6,0.9,3.2,1.8,4.7,2.7c1.6,0.9,3.2,1.8,4.8,2.7l4,2.2l-3.7,2.6l-4.5,3.2l-4.5,3.3l-4.5,3.3l-4.4,3.3
		l-4.4,3.4l-4.4,3.4c-1.5,1.1-2.9,2.3-4.4,3.5l-4.4,3.5l-4.3,3.6c-1.4,1.2-2.9,2.4-4.3,3.6s-2.8,2.4-4.3,3.7s-2.8,2.5-4.2,3.7
		c-1.4,1.3-2.8,2.5-4.2,3.8c1.7-0.7,3.4-1.5,5-2.3c1.6-0.8,3.3-1.6,5-2.3c1.7-0.8,3.3-1.6,4.9-2.4c1.6-0.8,3.3-1.6,4.9-2.5l4.9-2.5
		l4.8-2.6c1.6-0.9,3.2-1.8,4.8-2.6l4.9-2.6c1.6-0.9,3.2-1.8,4.8-2.7l4.8-2.7l4.7-2.8l4.7-2.8l4.7-2.8l4.7-2.9l4.7-2.9l4.7-2.9
		l10.1-6.4l-10.5-6.1l-4.7-2.8l-4.7-2.7l-4.8-2.7c-1.6-0.9-3.2-1.8-4.8-2.7s-3.2-1.8-4.8-2.6l-3-1.7c2.1-1.2,4.2-2.4,6.2-3.6
		l4.4-2.6l4.4-2.6c2.9-1.8,5.9-3.5,8.8-5.4c1.5-0.9,2.9-1.8,4.4-2.7c1.5-0.9,2.9-1.8,4.3-2.8c1.4-0.9,2.9-1.9,4.3-2.8l4.3-2.9
		l4.3-2.9l4.3-3c1.4-1,2.8-2,4.2-3c1.4-1,2.8-2.1,4.2-3.1c-1.6,0.5-3.3,1-4.9,1.6C3313.7,932.5,3312.1,933,3310.5,933.6z"/>
	<path class="st14" d="M3175.8,918l-5.5,0.2l-5.5,0.3l-5.5,0.3c-1.8,0.1-3.7,0.2-5.5,0.3l-3.5,0.2c1.3-2.2,2.6-4.5,3.9-6.7l2.7-4.8
		l2.7-4.8c1.8-3.2,3.6-6.5,5.3-9.7c0.9-1.6,1.8-3.3,2.6-4.9c0.9-1.6,1.7-3.3,2.6-4.9c0.9-1.6,1.7-3.3,2.6-5l2.5-5l2.5-5l2.4-5
		c0.8-1.7,1.6-3.4,2.4-5.1c0.8-1.7,1.6-3.4,2.3-5.2c-1.2,1.4-2.4,2.7-3.6,4.1c-1.2,1.4-2.3,2.8-3.5,4.2l-3.5,4.3l-3.4,4.3l-3.4,4.3
		c-1.1,1.4-2.2,2.9-3.3,4.4c-1.1,1.4-2.2,2.9-3.3,4.4c-1.1,1.5-2.2,2.9-3.3,4.4c-2.2,2.9-4.3,5.9-6.5,8.9l-3.2,4.5l-3.2,4.5
		c-2.1,3-4.2,6-6.3,9l-3.1,4.5l-3.1,4.6l-7.9,11.8l13.6-0.4l5.5-0.2l5.5-0.2c1.8-0.1,3.7-0.1,5.5-0.2l5.5-0.3
		c1.8-0.1,3.7-0.2,5.5-0.3l4.7-0.3l-2,4.4l-2.5,5.4l-2.5,5.4l-2.4,5.5l-2.4,5.5c-0.8,1.8-1.6,3.7-2.4,5.5l-2.3,5.5
		c-0.8,1.9-1.5,3.7-2.3,5.6l-2.3,5.6l-2.2,5.6c-0.7,1.9-1.4,3.8-2.1,5.6c-0.7,1.9-1.4,3.8-2.1,5.7c-0.7,1.9-1.4,3.8-2,5.7
		c-0.6,1.9-1.3,3.8-1.9,5.8c1.2-1.6,2.3-3.2,3.4-4.8c1.1-1.6,2.2-3.3,3.3-4.9c1.1-1.6,2.2-3.3,3.3-5c1.1-1.7,2.2-3.3,3.2-5l3.2-5
		l3.1-5c1-1.7,2.1-3.4,3.1-5.1l3-5.1c1-1.7,2-3.4,3-5.1l3-5.1l2.9-5.1l2.9-5.2l2.9-5.2l2.8-5.2l2.8-5.2l2.8-5.2l6.1-11.4l-12.3,0.5
		L3175.8,918z"/>
	<path class="st76" d="M757.9,1067.6c-11.5-8-32.2-7.3-41.9-3.3c-23.2,9.4-29.4,30.6-27.5,50.1c0.4,3.7,1.6,17.3,12.2,27.1
		c9.5,8.8,23.9,12.3,34.4,7.4C758.5,1138,779.6,1082.6,757.9,1067.6z"/>
	<path class="st64" d="M771.5,1179.3c-5.3-1.4-15.1-5.6-17.3-14.3c-1.6-6.3,0.3-13.9-0.7-19.5c-2.4-12.9-45.4-27.8-43.2-19.4
		c7,27.2,18.2,47.6-17.9,52.8c-10.5,1.5,38.7,55.9,79,42.9c8.4-2.7,24-27.9,19.5-38.9C789.6,1180,781.8,1182,771.5,1179.3z"/>
	<path class="st64" d="M706.1,1768.8c-3.3-6.9-1.1-10.2-3.5-13.3c-5-6.4-24.3-4.8-29.4,4.3c-1.4,2.5,2.6,14.1,0,20.7
		c-2.5,6.2,0.8,7.6,1.1,8.4c3.1,7.1,13.3,13.3,23.3,10.4c10.7-3.2,16-15.3,13.8-22.2C710.5,1773.9,708.5,1773.8,706.1,1768.8z"/>
	<path class="st64" d="M802.3,1744c-5.5-6.5-26-2.8-29.7,6.6c-1.1,2.9,0.3,3.9,0.9,10.7c1.2,14.3-4.4,19.1-0.9,24.5
		c3.3,5.1,11.9,6.8,17.6,4.6c4.1-1.6,2.7-3.7,11.8-11.8c2.9-2.6,5-4.1,5.5-6.9c0.5-2.8-1.1-5.1-2.3-7.5
		C800.4,1754.5,806,1748.4,802.3,1744z"/>
	<path class="st80" d="M734.4,1416c-24.8,29.6,17,53.9,14.6,64.2c-8,35.3-2,108,4.7,131c1.8,6.1,2.5,12.4,2.2,18.8
		c-0.8,15.6-1.8,46.5,1.9,64.7c3.4,16.8,7.1,16.8,10,35.7c1.6,10.2,1.7,26.2,1.7,26.2l35.1-3.3c0,0,0.9-24.5,0-41.8
		c-1.4-26.9,0.8-27.6-2.2-56.8c-0.7-6.4-1.5-12.6-2.2-23.4c-0.4-5-1.1-15.9-1.1-24.5c0-16.2,2.9-23.2,6.7-44.6
		c1.6-8.8,4.3-25.4,5.6-42.3c5.3-67.6-10.5-135.9-19.2-144.1C778.3,1362.5,752.9,1394,734.4,1416z"/>
	<path class="st81" d="M765.1,1667.7c-0.5-7.9,0.3-6,0-30.5c-0.3-23.6-1-31.7-1.3-34.3c-1.2-11.8-2-11.6-3.9-27.2
		c-1.4-11.3-2.5-20.5-2.6-31.8c-0.2-17.2,13.9-102.3,5.9-106.5c-3.2-1.7-10.9,21.1-19.2,32.3c3.3,4.3,5.6,7.9,5,10.5
		c-8,35.3-2,108,4.7,131c1.8,6.1,2.5,12.5,2.2,18.8c-0.8,15.6-1.8,46.5,1.9,64.7c3.4,16.8,7.1,16.8,10,35.7
		c1.6,10.2,1.7,26.2,1.7,26.2l7.9-0.8c0.8-13.6-0.1-27.3-2.6-40.7C771.2,1695.7,766.4,1688.8,765.1,1667.7z"/>
	<path class="st82" d="M695.9,1375.5c-7.2,7.8-21.6,51.9-23.9,63.9c-3.2,17.2-0.3,25.6,2.2,55.7c1.3,15.5,1.6,26.3,2.2,47.9
		c0.8,26.3,1.1,39.7-1.1,51.3c-3.4,18-7.2,18.4-11.1,39c-2.5,13.6-3.7,27.4-3.3,41.2c0.2,26.7,8.9,59.6,10,89.2
		c0.1,2.8,35.1,1,35.1,1c2.9-4.3-2-34.5-0.6-47.8c2.8-25.3,0.4-27.5,3.3-52.4c2-16.3,3.8-22.3,5.6-26.8c3.8-9.5,10.4-19.1,13.6-29.4
		c21.4-68.3,33.6-169.2,34.3-173.4c2.6-16.3,7.2-50.8,6.4-52.8C762.1,1363.6,717.6,1351.9,695.9,1375.5z"/>
	<path class="st83" d="M741.6,1812.2c-3-3.3-4.9-3.4-9.5-6.7c-3.1-2.3-5.9-4.9-8.4-7.8c-3.4-3.9-6.1-8.5-7.8-13.4
		c-2.4-7.1-0.8-9.6-3.3-11.7c-4-3.2-11.8-0.4-15.6,1.7c-3.8,2.1-3.9,3.4-10,7.3c-6.5,4-8.2,3.6-8.9,3.3c-3.8-1.5-3-8.8-4.4-8.9
		c-2-0.1-4.6,12.9-4.5,26.2c0.1,8.4,1.2,11,2.8,12.8c2.8,3.2,5.3,2.2,11.7,6.1c5.5,3.4,5.1,5,10,7.8c4,2.2,8.3,3.5,12.8,3.9
		c4.1,0.4,3.4-0.4,17.3-1.7c4.1-0.4,8.2-1.2,12.3-1.7c3.6-0.4,5.6-0.6,7.3-2.2c2.6-2.5,2.3-6.5,2.2-7.2
		C745.3,1816.4,743.1,1813.9,741.6,1812.2z"/>
	<path class="st83" d="M858.7,1807.2c-3.8-3.8-7.1-1.4-15-4.5c-4.8-1.9-9.1-4.8-12.8-8.4c-1.6-1.4-3.3-3.4-6.7-7.3
		c-3.4-3.9-5.7-6.5-8.4-10c-4.6-6.2-4.3-7-6.1-7.8c-4.7-2-12.2,1.7-16.2,6.7c-3.3,4.1-2.8,7.4-6.1,8.9c-2.8,1.2-6.2,0.3-8.4-1.1
		c-4.8-3.1-4.4-8.9-6.1-8.9c-2.5,0-4.8,12.7-5.6,22.8c-0.8,9.5-1.1,14.4,1.7,17.3c2.7,2.9,5.9,1.9,17.8,3.3c0,0,8.4,1,19,3.3
		c13.2,2.9,12.3,4.5,21.7,6.1c10,1.7,16,0.7,24-0.6c5.2-0.8,9-2,10.6-5c1.2-2.3,0.8-4.9,0.6-6.7
		C862.3,1812.5,860.9,1809.5,858.7,1807.2z"/>
	<path class="st0" d="M743.5,1814.6c-4.4,0.1-10,0.2-11.9,0.4c-7.1,0.9-9.1,2-14.5,2.8c-5,0.7-10,0.7-15,0
		c-4.9-0.7-9.6-2.2-13.9-4.5c-4.1-2.2-13-8.3-18.9-12.9c0,0.6,0,1.2,0,1.7c0.1,8.3,1.2,11,2.8,12.8c2.8,3.2,5.3,2.2,11.7,6.1
		c5.5,3.4,5.1,5,10,7.8c4,2.2,8.3,3.5,12.8,3.9c4.1,0.4,3.4-0.4,17.3-1.7c4.1-0.4,8.2-1.2,12.3-1.7c3.6-0.4,5.6-0.6,7.3-2.2
		c2.6-2.5,2.3-6.5,2.2-7.2C745.4,1818.1,744.7,1816.2,743.5,1814.6z"/>
	<path class="st0" d="M862.1,1813.3c-8.7,2.2-24.4,4.1-39.6,1.1c-2.8-0.6-8.8-0.2-32.9-6.7c-3.2-0.8-13.9-3.1-22.7-5.1
		c-0.4,6.4-0.2,10,2,12.3c2.8,2.9,5.9,1.9,17.8,3.3c0,0,8.4,1,19,3.3c13.2,2.9,12.3,4.5,21.7,6.1c10,1.7,16,0.7,24-0.6
		c5.2-0.8,9-2,10.6-5c1.2-2.3,0.8-4.9,0.6-6.7C862.5,1814.8,862.3,1814.1,862.1,1813.3z"/>
	<path class="st84" d="M815.1,1207c-1.1-4.7-12.3-16-13.9-18c-5.3-6.6-16.8-9.6-16.8-7.7c-0.3,10.9,15.9,33.7,15.9,73.7
		c0.1,49.9,38.6,62.3,43.5,58.6c35-26.3-5.3-65.8-13.1-76C817.9,1221.3,816.7,1214.2,815.1,1207z"/>
	<path class="st85" d="M797.1,1232.2c1.4,5.1,2.4,10.4,2.9,15.7c2.4,6.4,3.8,13.2,4.1,20c0.1,3.4-0.1,6.8-0.5,10.2
		c6.2,20.2,19.9,30.5,29.7,34.3c2.6-30.2-6.7-48.4-11.6-56.2C813.7,1243.7,802.2,1233.7,797.1,1232.2z"/>
	<path class="st86" d="M831,1250.3c-1.6-2-4.3-5-4.8-9.8c-0.2-2.2,0.3-2.4,1.4-9.8c1.4-9.2,0.4-7.1,1.4-12.2
		c0.6-2.8,1.3-5.3,0.2-6.7c-0.7-1-1.8-0.6-2.4-1.8s0.1-2,0-3.7c-0.1-1.9-1-3.6-2.4-4.9c-2.3-1.8-5.4,0.1-6.2,0.6
		c-6.3,3.8-7.3,18.9-7.9,30.2c-0.8,14.8,0.2,25.7,1.4,37.6c2.3,22.9,5,28.4,6.5,31.1s7,12.8,15.8,14c2.7,0.5,5.6,0,7.9-1.5
		c6.2-4,7.4-13.7,7.7-15.6c0.8-6.8-0.8-12.1-2.4-17.1C845.7,1275.6,840.5,1261.8,831,1250.3z"/>
	<path class="st87" d="M730.4,1146.8c-6.6-4-10.5-9-12-10.3c-0.2,0.3-0.4,0.6-0.5,1c1.4,5,11.3,22.9,31.3,25.9
		c1.5,0.2,3.1,0.3,4.7,0.3c-0.3-3.6-0.3-7.2,0-10.9C743.5,1152.8,735.9,1150.2,730.4,1146.8z"/>
	<path class="st64" d="M753.8,1068c-11.3-4.7-22.2,0.3-25,1.7c-12.3,6.2-16.7,18.3-18.5,23c-6.2,16.8-0.9,31.5,0.6,35.4
		c4.6,12.2,28.4,35.9,45.8,26.2c5.9-3.3,9.1-7.6,11.7-14.3c3.4-8.9,1.5-16.3,2.3-24.1c1-9.3,0.7-16.3,0-20.7
		C770.2,1092.2,769.1,1074.3,753.8,1068z"/>
	<path class="st76" d="M749.6,1064.6c-0.9-0.2-1.7-0.5-2.5-0.6c-4.2-0.9-8.5-0.9-12.7-0.1c-4.5,0.9-8.8,2.5-12.8,4.9
		c-3.1,1.9-5.9,4.2-8.3,6.9c-5.2,5.8-7.1,11.4-9.8,19.7c-1.2,3.4-1.8,6.9-2,10.4c-0.1,1.9,0.1,3.8,0.4,5.7
		c11.7,0.6,26.7,2.3,25.7-24.1c-0.1-2.3,45.2,5.4,43.5,23.8C772.6,1105.4,779.9,1071.8,749.6,1064.6z"/>
	<path class="st64" d="M710.3,1108.6c-3.2,0.9-4.5,5.9-4.6,9c-0.2,7.5,6.2,15.2,9.7,14.1c3.9-1.1,6.2-13.6,1.5-19.8
		C716.7,1111.7,713.6,1107.6,710.3,1108.6z"/>
	<path class="st87" d="M714.4,1125.6c-0.1-0.1-0.1-0.2-0.2-0.3L714.4,1125.6z"/>
	<path class="st87" d="M714.5,1115.7c-1.6-0.4-3.3,0.3-4.2,1.8c-1.3,2.2-0.1,5.4,1.4,7.5c0.6,0.9,1.7,2.3,2.7,2.3
		c0.1,0,1.3-0.1-0.1-1.7l-0.3-0.3l-0.3-0.4c-0.7-0.8-0.4-0.5,0,0c-0.7-0.8-1.4-1.7-1.8-2.8c-0.6-1.6-0.8-3-0.3-3.8
		c0.5-0.8,1.5-1.2,2.5-1c0.8,0.3,1.4,0.9,1.6,1.7c0.1,0.4,0.4,0.6,0.8,0.6c0.5-0.1,0.8-0.6,0.6-1l0-0.1
		C716.8,1117.2,715.9,1116.1,714.5,1115.7z"/>
	<polygon class="st87" points="713.8,1124.9 714.1,1125.2 714.2,1125.3 713.8,1124.9 	"/>
	<path class="st87" d="M718.1,1130.9L718.1,1130.9c-0.4,0-0.8,0.3-0.8,0.7c-0.1,1.1-0.4,1.2-1.1,1.2c-1.3,0-2-1.2-2.5-2.5
		c-0.2-0.5-0.4-0.9-0.8-1c-1.5-0.3-4.5-4.2-5.5-9.1c-0.5-2.4-0.4-4.8,0.5-7.1c0.3-1,0.9-1.9,1.8-2.6c0.9-0.4,1.9-0.5,2.8-0.2
		c1.5,0.5,2.7,1.5,3.5,2.9c0.2,0.3,0.6,0.5,1,0.3l0,0c0.4-0.3,0.5-0.8,0.3-1.2c-0.9-1.7-2.5-3-4.4-3.6c-1.3-0.4-2.7-0.3-3.8,0.4
		c-1.2,0.8-2.1,2-2.5,3.4c-1,2.6-1.2,5.4-0.6,8.2c1,5.2,4.1,9.5,6.4,10.3v0.1c0.4,1,1.4,3.6,3.9,3.6c1.9,0,2.4-1.5,2.6-2.7
		C718.9,1131.4,718.6,1131,718.1,1130.9z M712.7,1131L712.7,1131z"/>
	<path class="st87" d="M715,1119.8c-0.6,0.8-0.8,1.7-0.7,2.6c0.1,1.3,0.6,2.5,0.9,2.5c0.2-0.1-0.5-2.3,0.6-4.1
		c0.6-0.9,1.3-1.3,1.2-1.5C716.9,1119,715.7,1119,715,1119.8z"/>
	<path class="st78" d="M748.6,1105.9c-5.6-1-11.3-1-16.9,0c-0.8,0.2-1.4,1-1.2,1.8l0,0c0.2,0.8,1,1.3,1.8,1.2
		c3.2-0.6,6.5-0.8,9.7-0.7c2.1,0.1,4.1,0.3,6.1,0.7c0.8,0.1,1.6-0.4,1.8-1.2C750,1106.9,749.5,1106.1,748.6,1105.9L748.6,1105.9z"/>
	<path class="st87" d="M758.7,1121.2c-0.5-2.7-0.9-5.4-1.1-8.1c-0.1-0.4-0.4-0.7-0.8-0.7c-0.4,0-0.7,0.3-0.7,0.7v0
		c0.2,2.8,0.6,5.5,1.1,8.3c0.3,1.3,0.5,2.4,0.7,3.4c0.6,2.7,0.9,4,0.2,4.9c-0.8,1.1-3.1,1.4-6.4,0.7c-0.4-0.1-0.8,0.1-0.9,0.5
		c-0.1,0.4,0.2,0.8,0.6,0.8l0,0c0.6,0.1,1.3,0.2,1.8,0.3c3,0.3,5.1-0.2,6.1-1.6s0.7-3,0-6C759.1,1123.6,758.9,1122.5,758.7,1121.2z"
		/>
	<ellipse class="st78" cx="742.5" cy="1114.9" rx="2.2" ry="3.4"/>
	<path class="st78" d="M763,1111.5c-1.2,0-2.2,1.5-2.2,3.4c0,1.9,1,3.4,2.2,3.4c1.2,0,2.2-1.5,2.2-3.4
		C765.2,1113,764.2,1111.5,763,1111.5z"/>
	<path class="st78" d="M769.2,1105c-2.4-0.1-4.7-0.1-7.1,0.1c-1.8,0.1-3.5,0.4-5.3,0.7c-0.8,0.2-1.3,1.1-1.1,1.9
		c0.2,0.7,0.9,1.2,1.6,1.1c1.6-0.3,3.3-0.5,5-0.7c2.2-0.2,4.5-0.2,6.7-0.1c0.8,0,1.5-0.6,1.6-1.4
		C770.8,1105.8,770.1,1105.1,769.2,1105L769.2,1105z"/>
	<path class="st87" d="M760.1,1136.8l-2.2,0.2c-3.2,0.3-6.4,0.3-9.5,0l-4.1-0.4c-0.9-0.1-1.6,0.6-1.2,1.2c1.2,1.8,5.8,4.1,10.1,4.1
		c3.2,0.1,6.3-1.4,8.2-3.9C761.8,1137.4,761.1,1136.6,760.1,1136.8z"/>
	<path class="st88" d="M735,1120.2c-3.1-0.4-5.8,0.9-6.1,2.8c-0.3,1.9,2.1,3.9,5.2,4.3c3.1,0.4,5.8-0.9,6.1-2.8
		S738.2,1120.6,735,1120.2z"/>
	<path class="st84" d="M784.4,1181.3c0,0-4.3,16-34.5,15.5c-41.7-0.7-57.5-17.9-57.5-17.9s-31.3,4-35.1,21.2
		c-8.2,37,14.3,38.8,15.1,57.9c2.8,66.2,0.6,117.9,5,134.8c5.9,23.1,115.7,22.6,121.8,2c16.1-54.5,3.8-105.5,7.1-111.5
		C823.1,1253.3,784.4,1181.3,784.4,1181.3z"/>
	<path class="st89" d="M815.6,1184.2l-21.5,1.1c-2.5,0.1-4.6,2-4.9,4.5l-6.6,46.2c-0.4,2.9,1.6,5.5,4.4,5.9c0.3,0,0.7,0.1,1,0.1
		l20.6-1c2.5-0.1,4.5-2,4.9-4.4l9.4-45.6C823.5,1187.7,821.6,1184.2,815.6,1184.2z"/>
	<path class="st90" d="M817.4,1185.5l-21.5,1.1c-2.5,0.1-4.6,2-4.9,4.5l-6.6,46.2c-0.4,2.9,1.6,5.5,4.4,5.9c0.3,0,0.7,0.1,1,0.1
		l20.6-1c2.5-0.1,4.5-2,4.9-4.4l7.5-46.4c0.5-2.9-1.5-5.5-4.4-6C818.1,1185.5,817.8,1185.5,817.4,1185.5z"/>
	<path class="st91" d="M775.1,1261c-3.2-1.8-10.7,15-36,31.4c-12.6,8.1-19.8,12.8-28.2,13c-11.1,0.2-29.7-28.5-38-39.4
		c1.2,7.8,0.1,17.7,0.7,24.5c9.8,20.9,30.8,56.4,39.4,58.4c8.3,1.9,16.4-4.7,27.4-17C766.7,1302.2,779.9,1263.6,775.1,1261z"/>
	<path class="st0" d="M719.1,1262.3c-5-13.2-4.8-14.3-9.8-27.2c-7-18.3-10.3-23.5-12.6-26.9c-3.8-5.4-8.4-10.1-13.6-14.1
		c-5-3.8-8.8-6.9-13.6-6c-20.8,3.8-13.6,46.6-13.6,46.6c3.1,16.6,9.1,28.6,14,38.2c8.2,15.5,17.4,30.4,27.6,44.6
		c7.2,10.1,8.8,8.2,15,9.5c7.6,1.6,17.1-2.3,21-9.2c3.6-6.4,0.7-15.2-5.2-32.5C725.1,1276.3,724.3,1275.9,719.1,1262.3z"/>
	<path class="st64" d="M821.5,1202.9c-0.9,0.1-0.2,3.7-1.8,8.9c-0.7,2.5-1.9,4.9-3.4,7.1c-1.5,2.3-3.6,4.2-6,5.5
		c-3,1.6-7.9,3-9.2,1.3c-0.8-1,0.2-2.9,1.6-5.8c0.8-1.7,1.9-3.4,6-9.2c1.4-1.7,2.5-3.7,3.1-5.8c0.4-1.3,1-3.5,0-4.5
		c-1-1-3.1-0.2-3.7,0c-3.5,1.2-4.5,4.1-8.1,9.2c-3.8,5.4-4.1,4.1-7.1,8.6c-2.5,3.9-3,5.8-5.8,8.1c-2.4,2-5.6,3.6-6.3,2.9
		c-0.4-0.4,0.4-1.4,1.8-4.4c1.4-3.1,2.5-6.4,3.1-9.7c0.4-2,0.4-2.8,0-3.7c-0.7-1.7-2.8-3.2-4.5-2.9c-1.5,0.3-2.1,1.9-4.5,7.1
		c-2.2,4.7-3.2,7.1-4.2,8.6c-2.5,4.1-3.4,3.6-6.3,8.1c-1.9,2.9-3.4,5.2-4.2,8.6c-0.9,3.8,0,4.8-1,8.1c-0.5,1.5-1.2,3-4.2,6.8
		c-2.7,3.5-5.6,6.8-8.6,10c-6.1,6.3-23.1,20.6-23.9,23.3c-1.2,4.4,2.5,16.6,3.1,17.8c3.3,6.2,8.4,7.5,14.8,5.8
		c6.4-1.7,22.7-26.9,35.3-42.4c4.3-5.3,6.9-7.5,9.4-9.2c4.8-3.2,6.1-2.4,13.1-6.3c5.4-3,3.4-2.9,12-8.4c4.3-2.8,6.8-4,7.3-6.8
		c0.2-1.8,0.2-3.7,0-5.5c-0.2-3.2,3.7-2.3,2.9-9.2c-0.4-1.6-0.5-3.3-0.3-5c0.2-1,0.4-2,0.8-2.9c1-2.9,1.3-5.9,1-8.9
		C823.7,1205.6,822.3,1202.8,821.5,1202.9z"/>
	<path class="st87" d="M807.7,1232.2c-0.7,0.3-1.3,0.6-1.8,0.9l0.8,1.3c0.4-0.3,1-0.5,1.7-0.9c3.4-1.6,9.6-4.7,14.4-11.4l-1.2-0.9
		C817,1227.7,811.2,1230.5,807.7,1232.2z"/>
	<path class="st87" d="M808.9,1239.2v1.5c4.6,0,9-3.7,11.3-5.8l-1.1-1.1C817.1,1235.8,813,1239.2,808.9,1239.2z"/>
	<path class="st0" d="M735.8,1277c-0.4-1.9-3,2.6-19.6,11.2c-7.6,3.9-9,4.6-11.2,6.6c-2,1.9-6.2,5.9-7.3,11.9
		c-1.8,9.7,5.2,20.9,14,23.1c2.9,0.7,5.2,0.2,9.1-0.7c12.3-2.9,20.5-10.6,25.5-15.4c0.7-0.7,11.5-13.6,11.5-13.6
		C742.7,1297,738.4,1290,735.8,1277z"/>
	<path class="st91" d="M735.8,1277c-0.4-0.7-1.4-0.9-2.1-0.5l0,0c-2.2,1.4-3.9,2.6-5.2,3.5c-0.7,0.5-1.6,0.4-2.1-0.3
		c-0.1-0.1-0.2-0.3-0.2-0.5c-3.5-11.5-12.8-41.5-18.7-53.2c-0.4-0.7-1.3-1-2-0.7l-0.1,0c-0.7,0.4-1,1.3-0.6,2
		c7,13.9,19.7,56.8,19.8,57.2c0.2,0.8,1.1,1.3,1.9,1c0.3-0.1,0.6-0.3,0.8-0.6c0,0,1.5-1.9,8-6.1
		C736.1,1278.6,736.3,1277.7,735.8,1277L735.8,1277z"/>
	<path class="st91" d="M674.1,1190.4c-2.4-0.7-5.4-1.6-8.8-0.4c-4.6,1.6-6.8,5.9-7.7,8.4c-0.2,0.7,0.1,1.4,0.8,1.6l0.1,0
		c0.6,0.2,1.3-0.2,1.5-0.8c0.7-2,2.5-5.6,6.2-6.9c2.6-0.9,5.1-0.2,7.2,0.5c4.5,1.4,8.5,4.1,11.5,7.7c0.5,0.5,1.3,0.6,1.8,0.1
		c0.5-0.5,0.6-1.3,0.1-1.8C683.5,1194.9,679,1191.9,674.1,1190.4z"/>
	<path class="st92" d="M752.2,1502.7c-3.1,15-6,29.2-6.6,37.6c-0.2,2.8-0.2,5.6,0,8.4c0,0.4,0.1,1,0.1,1.9c0.5,6.4,2,25.8,4.3,36.8
		l2-0.4c-2.2-10.8-3.7-30.1-4.2-36.5c-0.1-0.9-0.1-1.5-0.1-1.9c-0.2-2.7-0.2-5.3,0-8c0.7-8.3,3.5-22.4,6.6-37.4
		c4-19.6,10.2-56.4,10.2-67.3h-2.1C761.4,1447.5,756.2,1483.2,752.2,1502.7z"/>
	<path class="st93" d="M678.9,1418.5c-0.4-0.2-0.9-0.1-1.1,0.2l-0.1,0.2c-5.9,17.7-7.3,26.3-7.4,32.2c0,3.5,0.2,7,0.6,10.5
		c0.2,1.8,0.7,4.8,1,8.6c1,11.2,3,28.1,3.6,40.1c0,0.4,0.4,0.8,0.8,0.8h0.5c0.4,0,0.8-0.3,0.8-0.8v0c-0.1-12.4-2.3-29.8-3.6-40.3
		c-0.5-3.8-0.9-6.8-1-8.5c-0.4-3.4-0.6-6.8-0.6-10.3c0.1-5.8-0.2-7,6.9-31.8C679.3,1419,679.2,1418.7,678.9,1418.5z"/>
	<path class="st92" d="M675.9,1593.5l-1.1,1.7c2,1.3,12.8,4.4,21.6,4.4v-2C687.6,1597.5,677.2,1594.3,675.9,1593.5z"/>
	<path class="st92" d="M675.7,1599.5l-1.5-0.3l-0.4,2l1.5,0.3c2.8,0.4,5.5,1,8.1,1.9c2.9,1.2,5.5,2.7,8,4.6l1.2-1.6
		c-2.6-2-5.4-3.6-8.4-4.9C681.5,1600.6,678.7,1599.9,675.7,1599.5z"/>
	<path class="st92" d="M766.2,1609.2c-3,0.6-6.1,1-9.2,1.2c-0.2,0-1.3-0.1-2-0.2c-0.5-0.1-0.9-0.1-1.4-0.1l0.1,1.3v0.7
		c0.1,0,0.6,0,1.2,0.1c1.4,0.1,1.9,0.2,2.1,0.2h0.1c6.5-0.5,12.9-1.8,19.1-3.9l-0.7-1.9C772.5,1607.7,769.4,1608.6,766.2,1609.2z"/>
	<path class="st92" d="M764.6,1616.1c-0.9,0.1-2.3,0.1-3.7,0.2c-1.9,0.1-3.8,0.2-4.9,0.3l0.2,2c1.1-0.1,3-0.2,4.8-0.3
		c1.5-0.1,2.9-0.1,3.8-0.2c2.6-0.2,5.2-0.3,7.8-0.4l-0.1-2C769.9,1615.8,767.2,1616,764.6,1616.1z"/>
	<path class="st94" d="M799.9,1771.3c-3.1,1.7-5.8,4.1-7.8,7c-0.8,1.2-1.4,2.6-1.9,4c-0.2,1-0.8,1.9-1.6,2.5c-1.5,0.8-3.3,1.1-5,0.9
		c-1.6-0.1-3.2-0.6-4.7-1.4l-1,1.8c1.7,1,3.6,1.5,5.5,1.7c0.4,0,0.9,0.1,1.4,0.1c1.7,0.1,3.4-0.4,4.8-1.2c1.3-0.8,2.1-2.1,2.5-3.6
		c0.4-1.3,1-2.5,1.7-3.6c1.8-2.6,4.2-4.8,7-6.3c1.7-1,3.5-1.7,5.4-2.2l-0.5-2C803.7,1769.4,801.7,1770.2,799.9,1771.3z"/>
	<path class="st94" d="M694.5,1776.2c-0.9,0.6-1.8,1.4-2.7,2.1c-1,0.9-2.1,1.7-3.2,2.5c-1.7,1.2-3.5,2.2-5.4,3
		c-2.5,1-4.3,1.5-5.8,0.8c-0.7-0.3-1.2-0.8-1.6-1.5l-1.7,1.2c0.6,0.9,1.5,1.7,2.4,2.1c0.8,0.4,1.6,0.5,2.5,0.5
		c1.7-0.1,3.4-0.6,5-1.3c2.1-0.8,4-1.9,5.8-3.2c1.2-0.8,2.3-1.7,3.4-2.6c0.8-0.7,1.6-1.4,2.5-2c1.9-1.3,4-2.4,6.1-3.2l-0.7-1.9
		C698.8,1773.6,696.5,1774.8,694.5,1776.2z"/>
	<path class="st89" d="M797.2,1190.2c-0.6-0.2-1.3,0.4-1.5,1.3c-0.3,0.6-0.1,1.4,0.5,1.7c0.6,0.3,1.4,0.1,1.7-0.5
		c0.1-0.2,0.2-0.4,0.2-0.7C798.2,1191.3,797.9,1190.5,797.2,1190.2z"/>
	<path class="st91" d="M765.9,1194.5c-3,0.6-6,1.1-9,1.4c-11.1,1.1-22.3,0.2-33.1-2.5c-7.7-1.9-15.1-4.8-22.1-8.5
		c-3.1-1.8-6.2-3.7-9.1-5.8c-0.7-0.5-1.6-0.4-2.1,0.3c-0.5,0.7-0.4,1.6,0.3,2.1l0,0c3,2.2,6.1,4.3,9.4,6.1
		c7.2,3.9,14.9,6.9,22.8,8.8c8.1,2,16.4,3.1,24.8,3.1c3.1,0,6.3-0.2,9.4-0.5c3.1-0.3,6.3-0.8,9.4-1.5c0.8-0.2,1.4-1,1.2-1.8
		C767.6,1194.9,766.7,1194.3,765.9,1194.5L765.9,1194.5z"/>
	<circle class="st94" cx="749.1" cy="1204.8" r="2"/>
	<circle class="st94" cx="750.1" cy="1213.1" r="2"/>
	<circle class="st94" cx="751.1" cy="1221.3" r="2"/>
	<path class="st76" d="M698.7,1046.8c-13.7,2.7-22.1,19.4-18.3,30.7c0.4,1.3,2.5,7.6,8,9.1c4.1,1.1,8.5-0.8,14.6-3.5
		c2.7-1.1,5.3-2.5,7.7-4.1c10.9-7.4,9.9-22.2,6.3-27.3C713.7,1047,705,1045.6,698.7,1046.8z"/>
	<path class="st82" d="M716.1,1094.3l0.1-0.2c0.4-1.1,1.6-1.7,2.8-1.3l9.9,3.5c1.1,0.4,1.7,1.6,1.3,2.8l-0.1,0.2
		c-0.4,1.1-1.6,1.7-2.8,1.3l-9.9-3.5C716.3,1096.7,715.7,1095.5,716.1,1094.3z"/>
</g>
</svg>
